<mxfile host="drawio-plugin" modified="2024-05-23T13:53:08.885Z" agent="Mozilla/5.0 (Macintosh; Intel Mac OS X 10_15_7) AppleWebKit/537.36 (KHTML, like Gecko) Chrome/122.0.0.0 Safari/537.36" etag="Kx13qAGfavpT4VOihRCB" version="22.1.22" type="embed">
  <diagram id="4QHXQcJ7ANklpVXQ6Nvd" name="Страница 1">
    <mxGraphModel dx="1204" dy="1345" grid="1" gridSize="10" guides="1" tooltips="1" connect="1" arrows="1" fold="1" page="1" pageScale="1" pageWidth="827" pageHeight="1169" math="0" shadow="0">
      <root>
        <mxCell id="0" />
        <mxCell id="1" parent="0" />
        <mxCell id="fwAwZjWYAgxhqmzoozVU-5" value="Branch" style="shape=table;startSize=30;container=1;collapsible=1;childLayout=tableLayout;fixedRows=1;rowLines=0;fontStyle=1;align=center;resizeLast=1;" parent="1" vertex="1">
          <mxGeometry x="370" y="1070" width="180" height="120" as="geometry">
            <mxRectangle x="370" y="1070" width="80" height="30" as="alternateBounds" />
          </mxGeometry>
        </mxCell>
        <mxCell id="fwAwZjWYAgxhqmzoozVU-6" value="" style="shape=tableRow;horizontal=0;startSize=0;swimlaneHead=0;swimlaneBody=0;fillColor=none;collapsible=0;dropTarget=0;points=[[0,0.5],[1,0.5]];portConstraint=eastwest;top=0;left=0;right=0;bottom=1;" parent="fwAwZjWYAgxhqmzoozVU-5" vertex="1">
          <mxGeometry y="30" width="180" height="30" as="geometry" />
        </mxCell>
        <mxCell id="fwAwZjWYAgxhqmzoozVU-7" value="PK" style="shape=partialRectangle;connectable=0;fillColor=none;top=0;left=0;bottom=0;right=0;fontStyle=1;overflow=hidden;" parent="fwAwZjWYAgxhqmzoozVU-6" vertex="1">
          <mxGeometry width="30" height="30" as="geometry">
            <mxRectangle width="30" height="30" as="alternateBounds" />
          </mxGeometry>
        </mxCell>
        <mxCell id="fwAwZjWYAgxhqmzoozVU-8" value="id" style="shape=partialRectangle;connectable=0;fillColor=none;top=0;left=0;bottom=0;right=0;align=left;spacingLeft=6;fontStyle=5;overflow=hidden;" parent="fwAwZjWYAgxhqmzoozVU-6" vertex="1">
          <mxGeometry x="30" width="150" height="30" as="geometry">
            <mxRectangle width="150" height="30" as="alternateBounds" />
          </mxGeometry>
        </mxCell>
        <mxCell id="fwAwZjWYAgxhqmzoozVU-12" value="" style="shape=tableRow;horizontal=0;startSize=0;swimlaneHead=0;swimlaneBody=0;fillColor=none;collapsible=0;dropTarget=0;points=[[0,0.5],[1,0.5]];portConstraint=eastwest;top=0;left=0;right=0;bottom=0;" parent="fwAwZjWYAgxhqmzoozVU-5" vertex="1">
          <mxGeometry y="60" width="180" height="30" as="geometry" />
        </mxCell>
        <mxCell id="fwAwZjWYAgxhqmzoozVU-13" value="" style="shape=partialRectangle;connectable=0;fillColor=none;top=0;left=0;bottom=0;right=0;editable=1;overflow=hidden;" parent="fwAwZjWYAgxhqmzoozVU-12" vertex="1">
          <mxGeometry width="30" height="30" as="geometry">
            <mxRectangle width="30" height="30" as="alternateBounds" />
          </mxGeometry>
        </mxCell>
        <mxCell id="fwAwZjWYAgxhqmzoozVU-14" value="address" style="shape=partialRectangle;connectable=0;fillColor=none;top=0;left=0;bottom=0;right=0;align=left;spacingLeft=6;overflow=hidden;" parent="fwAwZjWYAgxhqmzoozVU-12" vertex="1">
          <mxGeometry x="30" width="150" height="30" as="geometry">
            <mxRectangle width="150" height="30" as="alternateBounds" />
          </mxGeometry>
        </mxCell>
        <mxCell id="fwAwZjWYAgxhqmzoozVU-15" value="" style="shape=tableRow;horizontal=0;startSize=0;swimlaneHead=0;swimlaneBody=0;fillColor=none;collapsible=0;dropTarget=0;points=[[0,0.5],[1,0.5]];portConstraint=eastwest;top=0;left=0;right=0;bottom=0;" parent="fwAwZjWYAgxhqmzoozVU-5" vertex="1">
          <mxGeometry y="90" width="180" height="30" as="geometry" />
        </mxCell>
        <mxCell id="fwAwZjWYAgxhqmzoozVU-16" value="" style="shape=partialRectangle;connectable=0;fillColor=none;top=0;left=0;bottom=0;right=0;editable=1;overflow=hidden;" parent="fwAwZjWYAgxhqmzoozVU-15" vertex="1">
          <mxGeometry width="30" height="30" as="geometry">
            <mxRectangle width="30" height="30" as="alternateBounds" />
          </mxGeometry>
        </mxCell>
        <mxCell id="fwAwZjWYAgxhqmzoozVU-17" value="phone" style="shape=partialRectangle;connectable=0;fillColor=none;top=0;left=0;bottom=0;right=0;align=left;spacingLeft=6;overflow=hidden;" parent="fwAwZjWYAgxhqmzoozVU-15" vertex="1">
          <mxGeometry x="30" width="150" height="30" as="geometry">
            <mxRectangle width="150" height="30" as="alternateBounds" />
          </mxGeometry>
        </mxCell>
        <mxCell id="fwAwZjWYAgxhqmzoozVU-18" value="InsuranceType" style="shape=table;startSize=30;container=1;collapsible=1;childLayout=tableLayout;fixedRows=1;rowLines=0;fontStyle=1;align=center;resizeLast=1;" parent="1" vertex="1">
          <mxGeometry x="610" y="830" width="180" height="120" as="geometry">
            <mxRectangle x="610" y="830" width="120" height="30" as="alternateBounds" />
          </mxGeometry>
        </mxCell>
        <mxCell id="fwAwZjWYAgxhqmzoozVU-19" value="" style="shape=tableRow;horizontal=0;startSize=0;swimlaneHead=0;swimlaneBody=0;fillColor=none;collapsible=0;dropTarget=0;points=[[0,0.5],[1,0.5]];portConstraint=eastwest;top=0;left=0;right=0;bottom=1;" parent="fwAwZjWYAgxhqmzoozVU-18" vertex="1">
          <mxGeometry y="30" width="180" height="30" as="geometry" />
        </mxCell>
        <mxCell id="fwAwZjWYAgxhqmzoozVU-20" value="PK" style="shape=partialRectangle;connectable=0;fillColor=none;top=0;left=0;bottom=0;right=0;fontStyle=1;overflow=hidden;" parent="fwAwZjWYAgxhqmzoozVU-19" vertex="1">
          <mxGeometry width="30" height="30" as="geometry">
            <mxRectangle width="30" height="30" as="alternateBounds" />
          </mxGeometry>
        </mxCell>
        <mxCell id="fwAwZjWYAgxhqmzoozVU-21" value="id" style="shape=partialRectangle;connectable=0;fillColor=none;top=0;left=0;bottom=0;right=0;align=left;spacingLeft=6;fontStyle=5;overflow=hidden;" parent="fwAwZjWYAgxhqmzoozVU-19" vertex="1">
          <mxGeometry x="30" width="150" height="30" as="geometry">
            <mxRectangle width="150" height="30" as="alternateBounds" />
          </mxGeometry>
        </mxCell>
        <mxCell id="fwAwZjWYAgxhqmzoozVU-22" value="" style="shape=tableRow;horizontal=0;startSize=0;swimlaneHead=0;swimlaneBody=0;fillColor=none;collapsible=0;dropTarget=0;points=[[0,0.5],[1,0.5]];portConstraint=eastwest;top=0;left=0;right=0;bottom=0;" parent="fwAwZjWYAgxhqmzoozVU-18" vertex="1">
          <mxGeometry y="60" width="180" height="30" as="geometry" />
        </mxCell>
        <mxCell id="fwAwZjWYAgxhqmzoozVU-23" value="" style="shape=partialRectangle;connectable=0;fillColor=none;top=0;left=0;bottom=0;right=0;editable=1;overflow=hidden;" parent="fwAwZjWYAgxhqmzoozVU-22" vertex="1">
          <mxGeometry width="30" height="30" as="geometry">
            <mxRectangle width="30" height="30" as="alternateBounds" />
          </mxGeometry>
        </mxCell>
        <mxCell id="fwAwZjWYAgxhqmzoozVU-24" value="name   " style="shape=partialRectangle;connectable=0;fillColor=none;top=0;left=0;bottom=0;right=0;align=left;spacingLeft=6;overflow=hidden;" parent="fwAwZjWYAgxhqmzoozVU-22" vertex="1">
          <mxGeometry x="30" width="150" height="30" as="geometry">
            <mxRectangle width="150" height="30" as="alternateBounds" />
          </mxGeometry>
        </mxCell>
        <mxCell id="fwAwZjWYAgxhqmzoozVU-25" value="" style="shape=tableRow;horizontal=0;startSize=0;swimlaneHead=0;swimlaneBody=0;fillColor=none;collapsible=0;dropTarget=0;points=[[0,0.5],[1,0.5]];portConstraint=eastwest;top=0;left=0;right=0;bottom=0;" parent="fwAwZjWYAgxhqmzoozVU-18" vertex="1">
          <mxGeometry y="90" width="180" height="30" as="geometry" />
        </mxCell>
        <mxCell id="fwAwZjWYAgxhqmzoozVU-26" value="" style="shape=partialRectangle;connectable=0;fillColor=none;top=0;left=0;bottom=0;right=0;editable=1;overflow=hidden;" parent="fwAwZjWYAgxhqmzoozVU-25" vertex="1">
          <mxGeometry width="30" height="30" as="geometry">
            <mxRectangle width="30" height="30" as="alternateBounds" />
          </mxGeometry>
        </mxCell>
        <mxCell id="fwAwZjWYAgxhqmzoozVU-27" value="commission_rate" style="shape=partialRectangle;connectable=0;fillColor=none;top=0;left=0;bottom=0;right=0;align=left;spacingLeft=6;overflow=hidden;" parent="fwAwZjWYAgxhqmzoozVU-25" vertex="1">
          <mxGeometry x="30" width="150" height="30" as="geometry">
            <mxRectangle width="150" height="30" as="alternateBounds" />
          </mxGeometry>
        </mxCell>
        <mxCell id="fwAwZjWYAgxhqmzoozVU-31" value="Client" style="shape=table;startSize=30;container=1;collapsible=1;childLayout=tableLayout;fixedRows=1;rowLines=0;fontStyle=1;align=center;resizeLast=1;" parent="1" vertex="1">
          <mxGeometry x="850" y="595" width="180" height="240" as="geometry">
            <mxRectangle x="850" y="600" width="70" height="30" as="alternateBounds" />
          </mxGeometry>
        </mxCell>
        <mxCell id="fwAwZjWYAgxhqmzoozVU-32" value="" style="shape=tableRow;horizontal=0;startSize=0;swimlaneHead=0;swimlaneBody=0;fillColor=none;collapsible=0;dropTarget=0;points=[[0,0.5],[1,0.5]];portConstraint=eastwest;top=0;left=0;right=0;bottom=1;" parent="fwAwZjWYAgxhqmzoozVU-31" vertex="1">
          <mxGeometry y="30" width="180" height="30" as="geometry" />
        </mxCell>
        <mxCell id="fwAwZjWYAgxhqmzoozVU-33" value="PK" style="shape=partialRectangle;connectable=0;fillColor=none;top=0;left=0;bottom=0;right=0;fontStyle=1;overflow=hidden;" parent="fwAwZjWYAgxhqmzoozVU-32" vertex="1">
          <mxGeometry width="30" height="30" as="geometry">
            <mxRectangle width="30" height="30" as="alternateBounds" />
          </mxGeometry>
        </mxCell>
        <mxCell id="fwAwZjWYAgxhqmzoozVU-34" value="id" style="shape=partialRectangle;connectable=0;fillColor=none;top=0;left=0;bottom=0;right=0;align=left;spacingLeft=6;fontStyle=5;overflow=hidden;" parent="fwAwZjWYAgxhqmzoozVU-32" vertex="1">
          <mxGeometry x="30" width="150" height="30" as="geometry">
            <mxRectangle width="150" height="30" as="alternateBounds" />
          </mxGeometry>
        </mxCell>
        <mxCell id="fwAwZjWYAgxhqmzoozVU-35" value="" style="shape=tableRow;horizontal=0;startSize=0;swimlaneHead=0;swimlaneBody=0;fillColor=none;collapsible=0;dropTarget=0;points=[[0,0.5],[1,0.5]];portConstraint=eastwest;top=0;left=0;right=0;bottom=0;" parent="fwAwZjWYAgxhqmzoozVU-31" vertex="1">
          <mxGeometry y="60" width="180" height="30" as="geometry" />
        </mxCell>
        <mxCell id="fwAwZjWYAgxhqmzoozVU-36" value="" style="shape=partialRectangle;connectable=0;fillColor=none;top=0;left=0;bottom=0;right=0;editable=1;overflow=hidden;" parent="fwAwZjWYAgxhqmzoozVU-35" vertex="1">
          <mxGeometry width="30" height="30" as="geometry">
            <mxRectangle width="30" height="30" as="alternateBounds" />
          </mxGeometry>
        </mxCell>
        <mxCell id="fwAwZjWYAgxhqmzoozVU-37" value="first_name" style="shape=partialRectangle;connectable=0;fillColor=none;top=0;left=0;bottom=0;right=0;align=left;spacingLeft=6;overflow=hidden;" parent="fwAwZjWYAgxhqmzoozVU-35" vertex="1">
          <mxGeometry x="30" width="150" height="30" as="geometry">
            <mxRectangle width="150" height="30" as="alternateBounds" />
          </mxGeometry>
        </mxCell>
        <mxCell id="fwAwZjWYAgxhqmzoozVU-38" value="" style="shape=tableRow;horizontal=0;startSize=0;swimlaneHead=0;swimlaneBody=0;fillColor=none;collapsible=0;dropTarget=0;points=[[0,0.5],[1,0.5]];portConstraint=eastwest;top=0;left=0;right=0;bottom=0;" parent="fwAwZjWYAgxhqmzoozVU-31" vertex="1">
          <mxGeometry y="90" width="180" height="30" as="geometry" />
        </mxCell>
        <mxCell id="fwAwZjWYAgxhqmzoozVU-39" value="" style="shape=partialRectangle;connectable=0;fillColor=none;top=0;left=0;bottom=0;right=0;editable=1;overflow=hidden;" parent="fwAwZjWYAgxhqmzoozVU-38" vertex="1">
          <mxGeometry width="30" height="30" as="geometry">
            <mxRectangle width="30" height="30" as="alternateBounds" />
          </mxGeometry>
        </mxCell>
        <mxCell id="fwAwZjWYAgxhqmzoozVU-40" value="last_name" style="shape=partialRectangle;connectable=0;fillColor=none;top=0;left=0;bottom=0;right=0;align=left;spacingLeft=6;overflow=hidden;" parent="fwAwZjWYAgxhqmzoozVU-38" vertex="1">
          <mxGeometry x="30" width="150" height="30" as="geometry">
            <mxRectangle width="150" height="30" as="alternateBounds" />
          </mxGeometry>
        </mxCell>
        <mxCell id="fwAwZjWYAgxhqmzoozVU-48" value="" style="shape=tableRow;horizontal=0;startSize=0;swimlaneHead=0;swimlaneBody=0;fillColor=none;collapsible=0;dropTarget=0;points=[[0,0.5],[1,0.5]];portConstraint=eastwest;top=0;left=0;right=0;bottom=0;" parent="fwAwZjWYAgxhqmzoozVU-31" vertex="1">
          <mxGeometry y="120" width="180" height="30" as="geometry" />
        </mxCell>
        <mxCell id="fwAwZjWYAgxhqmzoozVU-49" value="" style="shape=partialRectangle;connectable=0;fillColor=none;top=0;left=0;bottom=0;right=0;fontStyle=0;overflow=hidden;" parent="fwAwZjWYAgxhqmzoozVU-48" vertex="1">
          <mxGeometry width="30" height="30" as="geometry">
            <mxRectangle width="30" height="30" as="alternateBounds" />
          </mxGeometry>
        </mxCell>
        <mxCell id="fwAwZjWYAgxhqmzoozVU-50" value="address" style="shape=partialRectangle;connectable=0;fillColor=none;top=0;left=0;bottom=0;right=0;align=left;spacingLeft=6;fontStyle=0;overflow=hidden;" parent="fwAwZjWYAgxhqmzoozVU-48" vertex="1">
          <mxGeometry x="30" width="150" height="30" as="geometry">
            <mxRectangle width="150" height="30" as="alternateBounds" />
          </mxGeometry>
        </mxCell>
        <mxCell id="fwAwZjWYAgxhqmzoozVU-51" value="" style="shape=tableRow;horizontal=0;startSize=0;swimlaneHead=0;swimlaneBody=0;fillColor=none;collapsible=0;dropTarget=0;points=[[0,0.5],[1,0.5]];portConstraint=eastwest;top=0;left=0;right=0;bottom=0;" parent="fwAwZjWYAgxhqmzoozVU-31" vertex="1">
          <mxGeometry y="150" width="180" height="30" as="geometry" />
        </mxCell>
        <mxCell id="fwAwZjWYAgxhqmzoozVU-52" value="" style="shape=partialRectangle;connectable=0;fillColor=none;top=0;left=0;bottom=0;right=0;fontStyle=0;overflow=hidden;" parent="fwAwZjWYAgxhqmzoozVU-51" vertex="1">
          <mxGeometry width="30" height="30" as="geometry">
            <mxRectangle width="30" height="30" as="alternateBounds" />
          </mxGeometry>
        </mxCell>
        <mxCell id="fwAwZjWYAgxhqmzoozVU-53" value="phone" style="shape=partialRectangle;connectable=0;fillColor=none;top=0;left=0;bottom=0;right=0;align=left;spacingLeft=6;fontStyle=0;overflow=hidden;" parent="fwAwZjWYAgxhqmzoozVU-51" vertex="1">
          <mxGeometry x="30" width="150" height="30" as="geometry">
            <mxRectangle width="150" height="30" as="alternateBounds" />
          </mxGeometry>
        </mxCell>
        <mxCell id="fwAwZjWYAgxhqmzoozVU-54" value="" style="shape=tableRow;horizontal=0;startSize=0;swimlaneHead=0;swimlaneBody=0;fillColor=none;collapsible=0;dropTarget=0;points=[[0,0.5],[1,0.5]];portConstraint=eastwest;top=0;left=0;right=0;bottom=0;" parent="fwAwZjWYAgxhqmzoozVU-31" vertex="1">
          <mxGeometry y="180" width="180" height="30" as="geometry" />
        </mxCell>
        <mxCell id="fwAwZjWYAgxhqmzoozVU-55" value="" style="shape=partialRectangle;connectable=0;fillColor=none;top=0;left=0;bottom=0;right=0;editable=1;overflow=hidden;" parent="fwAwZjWYAgxhqmzoozVU-54" vertex="1">
          <mxGeometry width="30" height="30" as="geometry">
            <mxRectangle width="30" height="30" as="alternateBounds" />
          </mxGeometry>
        </mxCell>
        <mxCell id="fwAwZjWYAgxhqmzoozVU-56" value="email" style="shape=partialRectangle;connectable=0;fillColor=none;top=0;left=0;bottom=0;right=0;align=left;spacingLeft=6;overflow=hidden;" parent="fwAwZjWYAgxhqmzoozVU-54" vertex="1">
          <mxGeometry x="30" width="150" height="30" as="geometry">
            <mxRectangle width="150" height="30" as="alternateBounds" />
          </mxGeometry>
        </mxCell>
        <mxCell id="fwAwZjWYAgxhqmzoozVU-60" value="" style="shape=tableRow;horizontal=0;startSize=0;swimlaneHead=0;swimlaneBody=0;fillColor=none;collapsible=0;dropTarget=0;points=[[0,0.5],[1,0.5]];portConstraint=eastwest;top=0;left=0;right=0;bottom=0;" parent="fwAwZjWYAgxhqmzoozVU-31" vertex="1">
          <mxGeometry y="210" width="180" height="30" as="geometry" />
        </mxCell>
        <mxCell id="fwAwZjWYAgxhqmzoozVU-61" value="FK" style="shape=partialRectangle;connectable=0;fillColor=none;top=0;left=0;bottom=0;right=0;editable=1;overflow=hidden;" parent="fwAwZjWYAgxhqmzoozVU-60" vertex="1">
          <mxGeometry width="30" height="30" as="geometry">
            <mxRectangle width="30" height="30" as="alternateBounds" />
          </mxGeometry>
        </mxCell>
        <mxCell id="fwAwZjWYAgxhqmzoozVU-62" value="profile_id" style="shape=partialRectangle;connectable=0;fillColor=none;top=0;left=0;bottom=0;right=0;align=left;spacingLeft=6;overflow=hidden;" parent="fwAwZjWYAgxhqmzoozVU-60" vertex="1">
          <mxGeometry x="30" width="150" height="30" as="geometry">
            <mxRectangle width="150" height="30" as="alternateBounds" />
          </mxGeometry>
        </mxCell>
        <mxCell id="fwAwZjWYAgxhqmzoozVU-43" value="" style="shape=tableRow;horizontal=0;startSize=0;swimlaneHead=0;swimlaneBody=0;fillColor=none;collapsible=0;dropTarget=0;points=[[0,0.5],[1,0.5]];portConstraint=eastwest;top=0;left=0;right=0;bottom=0;" parent="1" vertex="1">
          <mxGeometry x="80" y="490" width="180" height="30" as="geometry" />
        </mxCell>
        <mxCell id="fwAwZjWYAgxhqmzoozVU-63" value="Profile" style="shape=table;startSize=30;container=1;collapsible=1;childLayout=tableLayout;fixedRows=1;rowLines=0;fontStyle=1;align=center;resizeLast=1;" parent="1" vertex="1">
          <mxGeometry x="1090" y="750" width="180" height="150" as="geometry">
            <mxRectangle x="1120" y="850" width="80" height="30" as="alternateBounds" />
          </mxGeometry>
        </mxCell>
        <mxCell id="fwAwZjWYAgxhqmzoozVU-64" value="" style="shape=tableRow;horizontal=0;startSize=0;swimlaneHead=0;swimlaneBody=0;fillColor=none;collapsible=0;dropTarget=0;points=[[0,0.5],[1,0.5]];portConstraint=eastwest;top=0;left=0;right=0;bottom=1;" parent="fwAwZjWYAgxhqmzoozVU-63" vertex="1">
          <mxGeometry y="30" width="180" height="30" as="geometry" />
        </mxCell>
        <mxCell id="fwAwZjWYAgxhqmzoozVU-65" value="PK" style="shape=partialRectangle;connectable=0;fillColor=none;top=0;left=0;bottom=0;right=0;fontStyle=1;overflow=hidden;" parent="fwAwZjWYAgxhqmzoozVU-64" vertex="1">
          <mxGeometry width="30" height="30" as="geometry">
            <mxRectangle width="30" height="30" as="alternateBounds" />
          </mxGeometry>
        </mxCell>
        <mxCell id="fwAwZjWYAgxhqmzoozVU-66" value="id" style="shape=partialRectangle;connectable=0;fillColor=none;top=0;left=0;bottom=0;right=0;align=left;spacingLeft=6;fontStyle=5;overflow=hidden;" parent="fwAwZjWYAgxhqmzoozVU-64" vertex="1">
          <mxGeometry x="30" width="150" height="30" as="geometry">
            <mxRectangle width="150" height="30" as="alternateBounds" />
          </mxGeometry>
        </mxCell>
        <mxCell id="fwAwZjWYAgxhqmzoozVU-67" value="" style="shape=tableRow;horizontal=0;startSize=0;swimlaneHead=0;swimlaneBody=0;fillColor=none;collapsible=0;dropTarget=0;points=[[0,0.5],[1,0.5]];portConstraint=eastwest;top=0;left=0;right=0;bottom=0;" parent="fwAwZjWYAgxhqmzoozVU-63" vertex="1">
          <mxGeometry y="60" width="180" height="30" as="geometry" />
        </mxCell>
        <mxCell id="fwAwZjWYAgxhqmzoozVU-68" value="FK" style="shape=partialRectangle;connectable=0;fillColor=none;top=0;left=0;bottom=0;right=0;editable=1;overflow=hidden;" parent="fwAwZjWYAgxhqmzoozVU-67" vertex="1">
          <mxGeometry width="30" height="30" as="geometry">
            <mxRectangle width="30" height="30" as="alternateBounds" />
          </mxGeometry>
        </mxCell>
        <mxCell id="fwAwZjWYAgxhqmzoozVU-69" value="client_id" style="shape=partialRectangle;connectable=0;fillColor=none;top=0;left=0;bottom=0;right=0;align=left;spacingLeft=6;overflow=hidden;" parent="fwAwZjWYAgxhqmzoozVU-67" vertex="1">
          <mxGeometry x="30" width="150" height="30" as="geometry">
            <mxRectangle width="150" height="30" as="alternateBounds" />
          </mxGeometry>
        </mxCell>
        <mxCell id="fwAwZjWYAgxhqmzoozVU-70" value="" style="shape=tableRow;horizontal=0;startSize=0;swimlaneHead=0;swimlaneBody=0;fillColor=none;collapsible=0;dropTarget=0;points=[[0,0.5],[1,0.5]];portConstraint=eastwest;top=0;left=0;right=0;bottom=0;" parent="fwAwZjWYAgxhqmzoozVU-63" vertex="1">
          <mxGeometry y="90" width="180" height="30" as="geometry" />
        </mxCell>
        <mxCell id="fwAwZjWYAgxhqmzoozVU-71" value="" style="shape=partialRectangle;connectable=0;fillColor=none;top=0;left=0;bottom=0;right=0;editable=1;overflow=hidden;" parent="fwAwZjWYAgxhqmzoozVU-70" vertex="1">
          <mxGeometry width="30" height="30" as="geometry">
            <mxRectangle width="30" height="30" as="alternateBounds" />
          </mxGeometry>
        </mxCell>
        <mxCell id="fwAwZjWYAgxhqmzoozVU-72" value="additional_info" style="shape=partialRectangle;connectable=0;fillColor=none;top=0;left=0;bottom=0;right=0;align=left;spacingLeft=6;overflow=hidden;" parent="fwAwZjWYAgxhqmzoozVU-70" vertex="1">
          <mxGeometry x="30" width="150" height="30" as="geometry">
            <mxRectangle width="150" height="30" as="alternateBounds" />
          </mxGeometry>
        </mxCell>
        <mxCell id="fwAwZjWYAgxhqmzoozVU-85" value="" style="shape=tableRow;horizontal=0;startSize=0;swimlaneHead=0;swimlaneBody=0;fillColor=none;collapsible=0;dropTarget=0;points=[[0,0.5],[1,0.5]];portConstraint=eastwest;top=0;left=0;right=0;bottom=0;" parent="fwAwZjWYAgxhqmzoozVU-63" vertex="1">
          <mxGeometry y="120" width="180" height="30" as="geometry" />
        </mxCell>
        <mxCell id="fwAwZjWYAgxhqmzoozVU-86" value="" style="shape=partialRectangle;connectable=0;fillColor=none;top=0;left=0;bottom=0;right=0;editable=1;overflow=hidden;" parent="fwAwZjWYAgxhqmzoozVU-85" vertex="1">
          <mxGeometry width="30" height="30" as="geometry">
            <mxRectangle width="30" height="30" as="alternateBounds" />
          </mxGeometry>
        </mxCell>
        <mxCell id="fwAwZjWYAgxhqmzoozVU-87" value="photo_url" style="shape=partialRectangle;connectable=0;fillColor=none;top=0;left=0;bottom=0;right=0;align=left;spacingLeft=6;overflow=hidden;" parent="fwAwZjWYAgxhqmzoozVU-85" vertex="1">
          <mxGeometry x="30" width="150" height="30" as="geometry">
            <mxRectangle width="150" height="30" as="alternateBounds" />
          </mxGeometry>
        </mxCell>
        <mxCell id="fwAwZjWYAgxhqmzoozVU-97" value="" style="edgeStyle=entityRelationEdgeStyle;fontSize=12;html=1;endArrow=ERmandOne;startArrow=ERmandOne;rounded=0;entryX=0;entryY=0.5;entryDx=0;entryDy=0;exitX=1;exitY=0.5;exitDx=0;exitDy=0;" parent="1" source="fwAwZjWYAgxhqmzoozVU-60" target="fwAwZjWYAgxhqmzoozVU-67" edge="1">
          <mxGeometry width="100" height="100" relative="1" as="geometry">
            <mxPoint x="380" y="410" as="sourcePoint" />
            <mxPoint x="360" y="440" as="targetPoint" />
          </mxGeometry>
        </mxCell>
        <mxCell id="fwAwZjWYAgxhqmzoozVU-101" value="ClientAgent" style="shape=table;startSize=30;container=1;collapsible=1;childLayout=tableLayout;fixedRows=1;rowLines=0;fontStyle=1;align=center;resizeLast=1;" parent="1" vertex="1">
          <mxGeometry x="120" y="640" width="180" height="120" as="geometry">
            <mxRectangle x="370" y="460" width="80" height="30" as="alternateBounds" />
          </mxGeometry>
        </mxCell>
        <mxCell id="fwAwZjWYAgxhqmzoozVU-102" value="" style="shape=tableRow;horizontal=0;startSize=0;swimlaneHead=0;swimlaneBody=0;fillColor=none;collapsible=0;dropTarget=0;points=[[0,0.5],[1,0.5]];portConstraint=eastwest;top=0;left=0;right=0;bottom=1;" parent="fwAwZjWYAgxhqmzoozVU-101" vertex="1">
          <mxGeometry y="30" width="180" height="30" as="geometry" />
        </mxCell>
        <mxCell id="fwAwZjWYAgxhqmzoozVU-103" value="PK" style="shape=partialRectangle;connectable=0;fillColor=none;top=0;left=0;bottom=0;right=0;fontStyle=1;overflow=hidden;" parent="fwAwZjWYAgxhqmzoozVU-102" vertex="1">
          <mxGeometry width="30" height="30" as="geometry">
            <mxRectangle width="30" height="30" as="alternateBounds" />
          </mxGeometry>
        </mxCell>
        <mxCell id="fwAwZjWYAgxhqmzoozVU-104" value="id" style="shape=partialRectangle;connectable=0;fillColor=none;top=0;left=0;bottom=0;right=0;align=left;spacingLeft=6;fontStyle=5;overflow=hidden;" parent="fwAwZjWYAgxhqmzoozVU-102" vertex="1">
          <mxGeometry x="30" width="150" height="30" as="geometry">
            <mxRectangle width="150" height="30" as="alternateBounds" />
          </mxGeometry>
        </mxCell>
        <mxCell id="fwAwZjWYAgxhqmzoozVU-105" value="" style="shape=tableRow;horizontal=0;startSize=0;swimlaneHead=0;swimlaneBody=0;fillColor=none;collapsible=0;dropTarget=0;points=[[0,0.5],[1,0.5]];portConstraint=eastwest;top=0;left=0;right=0;bottom=0;" parent="fwAwZjWYAgxhqmzoozVU-101" vertex="1">
          <mxGeometry y="60" width="180" height="30" as="geometry" />
        </mxCell>
        <mxCell id="fwAwZjWYAgxhqmzoozVU-106" value="FK" style="shape=partialRectangle;connectable=0;fillColor=none;top=0;left=0;bottom=0;right=0;editable=1;overflow=hidden;" parent="fwAwZjWYAgxhqmzoozVU-105" vertex="1">
          <mxGeometry width="30" height="30" as="geometry">
            <mxRectangle width="30" height="30" as="alternateBounds" />
          </mxGeometry>
        </mxCell>
        <mxCell id="fwAwZjWYAgxhqmzoozVU-107" value="client_id" style="shape=partialRectangle;connectable=0;fillColor=none;top=0;left=0;bottom=0;right=0;align=left;spacingLeft=6;overflow=hidden;" parent="fwAwZjWYAgxhqmzoozVU-105" vertex="1">
          <mxGeometry x="30" width="150" height="30" as="geometry">
            <mxRectangle width="150" height="30" as="alternateBounds" />
          </mxGeometry>
        </mxCell>
        <mxCell id="fwAwZjWYAgxhqmzoozVU-108" value="" style="shape=tableRow;horizontal=0;startSize=0;swimlaneHead=0;swimlaneBody=0;fillColor=none;collapsible=0;dropTarget=0;points=[[0,0.5],[1,0.5]];portConstraint=eastwest;top=0;left=0;right=0;bottom=0;" parent="fwAwZjWYAgxhqmzoozVU-101" vertex="1">
          <mxGeometry y="90" width="180" height="30" as="geometry" />
        </mxCell>
        <mxCell id="fwAwZjWYAgxhqmzoozVU-109" value="FK" style="shape=partialRectangle;connectable=0;fillColor=none;top=0;left=0;bottom=0;right=0;editable=1;overflow=hidden;" parent="fwAwZjWYAgxhqmzoozVU-108" vertex="1">
          <mxGeometry width="30" height="30" as="geometry">
            <mxRectangle width="30" height="30" as="alternateBounds" />
          </mxGeometry>
        </mxCell>
        <mxCell id="fwAwZjWYAgxhqmzoozVU-110" value="agent_id" style="shape=partialRectangle;connectable=0;fillColor=none;top=0;left=0;bottom=0;right=0;align=left;spacingLeft=6;overflow=hidden;" parent="fwAwZjWYAgxhqmzoozVU-108" vertex="1">
          <mxGeometry x="30" width="150" height="30" as="geometry">
            <mxRectangle width="150" height="30" as="alternateBounds" />
          </mxGeometry>
        </mxCell>
        <mxCell id="fwAwZjWYAgxhqmzoozVU-136" value="InsuranceContract" style="shape=table;startSize=30;container=1;collapsible=1;childLayout=tableLayout;fixedRows=1;rowLines=0;fontStyle=1;align=center;resizeLast=1;" parent="1" vertex="1">
          <mxGeometry x="370" y="735" width="180" height="310" as="geometry" />
        </mxCell>
        <mxCell id="fwAwZjWYAgxhqmzoozVU-137" value="" style="shape=tableRow;horizontal=0;startSize=0;swimlaneHead=0;swimlaneBody=0;fillColor=none;collapsible=0;dropTarget=0;points=[[0,0.5],[1,0.5]];portConstraint=eastwest;top=0;left=0;right=0;bottom=1;" parent="fwAwZjWYAgxhqmzoozVU-136" vertex="1">
          <mxGeometry y="30" width="180" height="30" as="geometry" />
        </mxCell>
        <mxCell id="fwAwZjWYAgxhqmzoozVU-138" value="PK" style="shape=partialRectangle;connectable=0;fillColor=none;top=0;left=0;bottom=0;right=0;fontStyle=1;overflow=hidden;" parent="fwAwZjWYAgxhqmzoozVU-137" vertex="1">
          <mxGeometry width="30" height="30" as="geometry">
            <mxRectangle width="30" height="30" as="alternateBounds" />
          </mxGeometry>
        </mxCell>
        <mxCell id="fwAwZjWYAgxhqmzoozVU-139" value="id" style="shape=partialRectangle;connectable=0;fillColor=none;top=0;left=0;bottom=0;right=0;align=left;spacingLeft=6;fontStyle=5;overflow=hidden;" parent="fwAwZjWYAgxhqmzoozVU-137" vertex="1">
          <mxGeometry x="30" width="150" height="30" as="geometry">
            <mxRectangle width="150" height="30" as="alternateBounds" />
          </mxGeometry>
        </mxCell>
        <mxCell id="fwAwZjWYAgxhqmzoozVU-140" value="" style="shape=tableRow;horizontal=0;startSize=0;swimlaneHead=0;swimlaneBody=0;fillColor=none;collapsible=0;dropTarget=0;points=[[0,0.5],[1,0.5]];portConstraint=eastwest;top=0;left=0;right=0;bottom=0;" parent="fwAwZjWYAgxhqmzoozVU-136" vertex="1">
          <mxGeometry y="60" width="180" height="30" as="geometry" />
        </mxCell>
        <mxCell id="fwAwZjWYAgxhqmzoozVU-141" value="" style="shape=partialRectangle;connectable=0;fillColor=none;top=0;left=0;bottom=0;right=0;editable=1;overflow=hidden;" parent="fwAwZjWYAgxhqmzoozVU-140" vertex="1">
          <mxGeometry width="30" height="30" as="geometry">
            <mxRectangle width="30" height="30" as="alternateBounds" />
          </mxGeometry>
        </mxCell>
        <mxCell id="fwAwZjWYAgxhqmzoozVU-142" value="start_date" style="shape=partialRectangle;connectable=0;fillColor=none;top=0;left=0;bottom=0;right=0;align=left;spacingLeft=6;overflow=hidden;" parent="fwAwZjWYAgxhqmzoozVU-140" vertex="1">
          <mxGeometry x="30" width="150" height="30" as="geometry">
            <mxRectangle width="150" height="30" as="alternateBounds" />
          </mxGeometry>
        </mxCell>
        <mxCell id="fwAwZjWYAgxhqmzoozVU-143" value="" style="shape=tableRow;horizontal=0;startSize=0;swimlaneHead=0;swimlaneBody=0;fillColor=none;collapsible=0;dropTarget=0;points=[[0,0.5],[1,0.5]];portConstraint=eastwest;top=0;left=0;right=0;bottom=0;" parent="fwAwZjWYAgxhqmzoozVU-136" vertex="1">
          <mxGeometry y="90" width="180" height="30" as="geometry" />
        </mxCell>
        <mxCell id="fwAwZjWYAgxhqmzoozVU-144" value="" style="shape=partialRectangle;connectable=0;fillColor=none;top=0;left=0;bottom=0;right=0;editable=1;overflow=hidden;" parent="fwAwZjWYAgxhqmzoozVU-143" vertex="1">
          <mxGeometry width="30" height="30" as="geometry">
            <mxRectangle width="30" height="30" as="alternateBounds" />
          </mxGeometry>
        </mxCell>
        <mxCell id="fwAwZjWYAgxhqmzoozVU-145" value="end_date" style="shape=partialRectangle;connectable=0;fillColor=none;top=0;left=0;bottom=0;right=0;align=left;spacingLeft=6;overflow=hidden;" parent="fwAwZjWYAgxhqmzoozVU-143" vertex="1">
          <mxGeometry x="30" width="150" height="30" as="geometry">
            <mxRectangle width="150" height="30" as="alternateBounds" />
          </mxGeometry>
        </mxCell>
        <mxCell id="fwAwZjWYAgxhqmzoozVU-149" value="" style="shape=tableRow;horizontal=0;startSize=0;swimlaneHead=0;swimlaneBody=0;fillColor=none;collapsible=0;dropTarget=0;points=[[0,0.5],[1,0.5]];portConstraint=eastwest;top=0;left=0;right=0;bottom=0;" parent="fwAwZjWYAgxhqmzoozVU-136" vertex="1">
          <mxGeometry y="120" width="180" height="30" as="geometry" />
        </mxCell>
        <mxCell id="fwAwZjWYAgxhqmzoozVU-150" value="" style="shape=partialRectangle;connectable=0;fillColor=none;top=0;left=0;bottom=0;right=0;editable=1;overflow=hidden;" parent="fwAwZjWYAgxhqmzoozVU-149" vertex="1">
          <mxGeometry width="30" height="30" as="geometry">
            <mxRectangle width="30" height="30" as="alternateBounds" />
          </mxGeometry>
        </mxCell>
        <mxCell id="fwAwZjWYAgxhqmzoozVU-151" value="traffic_rate" style="shape=partialRectangle;connectable=0;fillColor=none;top=0;left=0;bottom=0;right=0;align=left;spacingLeft=6;overflow=hidden;" parent="fwAwZjWYAgxhqmzoozVU-149" vertex="1">
          <mxGeometry x="30" width="150" height="30" as="geometry">
            <mxRectangle width="150" height="30" as="alternateBounds" />
          </mxGeometry>
        </mxCell>
        <mxCell id="2" value="" style="shape=tableRow;horizontal=0;startSize=0;swimlaneHead=0;swimlaneBody=0;fillColor=none;collapsible=0;dropTarget=0;points=[[0,0.5],[1,0.5]];portConstraint=eastwest;top=0;left=0;right=0;bottom=0;" vertex="1" parent="fwAwZjWYAgxhqmzoozVU-136">
          <mxGeometry y="150" width="180" height="30" as="geometry" />
        </mxCell>
        <mxCell id="3" value="" style="shape=partialRectangle;connectable=0;fillColor=none;top=0;left=0;bottom=0;right=0;editable=1;overflow=hidden;" vertex="1" parent="2">
          <mxGeometry width="30" height="30" as="geometry">
            <mxRectangle width="30" height="30" as="alternateBounds" />
          </mxGeometry>
        </mxCell>
        <mxCell id="4" value="insurance_amount" style="shape=partialRectangle;connectable=0;fillColor=none;top=0;left=0;bottom=0;right=0;align=left;spacingLeft=6;overflow=hidden;" vertex="1" parent="2">
          <mxGeometry x="30" width="150" height="30" as="geometry">
            <mxRectangle width="150" height="30" as="alternateBounds" />
          </mxGeometry>
        </mxCell>
        <mxCell id="fwAwZjWYAgxhqmzoozVU-152" value="" style="shape=tableRow;horizontal=0;startSize=0;swimlaneHead=0;swimlaneBody=0;fillColor=none;collapsible=0;dropTarget=0;points=[[0,0.5],[1,0.5]];portConstraint=eastwest;top=0;left=0;right=0;bottom=0;" parent="fwAwZjWYAgxhqmzoozVU-136" vertex="1">
          <mxGeometry y="180" width="180" height="30" as="geometry" />
        </mxCell>
        <mxCell id="fwAwZjWYAgxhqmzoozVU-153" value="FK" style="shape=partialRectangle;connectable=0;fillColor=none;top=0;left=0;bottom=0;right=0;editable=1;overflow=hidden;" parent="fwAwZjWYAgxhqmzoozVU-152" vertex="1">
          <mxGeometry width="30" height="30" as="geometry">
            <mxRectangle width="30" height="30" as="alternateBounds" />
          </mxGeometry>
        </mxCell>
        <mxCell id="fwAwZjWYAgxhqmzoozVU-154" value="insurance_type_id" style="shape=partialRectangle;connectable=0;fillColor=none;top=0;left=0;bottom=0;right=0;align=left;spacingLeft=6;overflow=hidden;" parent="fwAwZjWYAgxhqmzoozVU-152" vertex="1">
          <mxGeometry x="30" width="150" height="30" as="geometry">
            <mxRectangle width="150" height="30" as="alternateBounds" />
          </mxGeometry>
        </mxCell>
        <mxCell id="fwAwZjWYAgxhqmzoozVU-155" value="" style="shape=tableRow;horizontal=0;startSize=0;swimlaneHead=0;swimlaneBody=0;fillColor=none;collapsible=0;dropTarget=0;points=[[0,0.5],[1,0.5]];portConstraint=eastwest;top=0;left=0;right=0;bottom=0;" parent="fwAwZjWYAgxhqmzoozVU-136" vertex="1">
          <mxGeometry y="210" width="180" height="30" as="geometry" />
        </mxCell>
        <mxCell id="fwAwZjWYAgxhqmzoozVU-156" value="FK" style="shape=partialRectangle;connectable=0;fillColor=none;top=0;left=0;bottom=0;right=0;editable=1;overflow=hidden;" parent="fwAwZjWYAgxhqmzoozVU-155" vertex="1">
          <mxGeometry width="30" height="30" as="geometry">
            <mxRectangle width="30" height="30" as="alternateBounds" />
          </mxGeometry>
        </mxCell>
        <mxCell id="fwAwZjWYAgxhqmzoozVU-157" value="insurance_object_id" style="shape=partialRectangle;connectable=0;fillColor=none;top=0;left=0;bottom=0;right=0;align=left;spacingLeft=6;overflow=hidden;" parent="fwAwZjWYAgxhqmzoozVU-155" vertex="1">
          <mxGeometry x="30" width="150" height="30" as="geometry">
            <mxRectangle width="150" height="30" as="alternateBounds" />
          </mxGeometry>
        </mxCell>
        <mxCell id="fwAwZjWYAgxhqmzoozVU-158" value="" style="shape=tableRow;horizontal=0;startSize=0;swimlaneHead=0;swimlaneBody=0;fillColor=none;collapsible=0;dropTarget=0;points=[[0,0.5],[1,0.5]];portConstraint=eastwest;top=0;left=0;right=0;bottom=0;" parent="fwAwZjWYAgxhqmzoozVU-136" vertex="1">
          <mxGeometry y="240" width="180" height="30" as="geometry" />
        </mxCell>
        <mxCell id="fwAwZjWYAgxhqmzoozVU-159" value="FK" style="shape=partialRectangle;connectable=0;fillColor=none;top=0;left=0;bottom=0;right=0;editable=1;overflow=hidden;" parent="fwAwZjWYAgxhqmzoozVU-158" vertex="1">
          <mxGeometry width="30" height="30" as="geometry">
            <mxRectangle width="30" height="30" as="alternateBounds" />
          </mxGeometry>
        </mxCell>
        <mxCell id="fwAwZjWYAgxhqmzoozVU-160" value="branch_id" style="shape=partialRectangle;connectable=0;fillColor=none;top=0;left=0;bottom=0;right=0;align=left;spacingLeft=6;overflow=hidden;" parent="fwAwZjWYAgxhqmzoozVU-158" vertex="1">
          <mxGeometry x="30" width="150" height="30" as="geometry">
            <mxRectangle width="150" height="30" as="alternateBounds" />
          </mxGeometry>
        </mxCell>
        <mxCell id="fwAwZjWYAgxhqmzoozVU-161" value="" style="shape=tableRow;horizontal=0;startSize=0;swimlaneHead=0;swimlaneBody=0;fillColor=none;collapsible=0;dropTarget=0;points=[[0,0.5],[1,0.5]];portConstraint=eastwest;top=0;left=0;right=0;bottom=0;" parent="fwAwZjWYAgxhqmzoozVU-136" vertex="1">
          <mxGeometry y="270" width="180" height="30" as="geometry" />
        </mxCell>
        <mxCell id="fwAwZjWYAgxhqmzoozVU-162" value="FK" style="shape=partialRectangle;connectable=0;fillColor=none;top=0;left=0;bottom=0;right=0;editable=1;overflow=hidden;" parent="fwAwZjWYAgxhqmzoozVU-161" vertex="1">
          <mxGeometry width="30" height="30" as="geometry">
            <mxRectangle width="30" height="30" as="alternateBounds" />
          </mxGeometry>
        </mxCell>
        <mxCell id="fwAwZjWYAgxhqmzoozVU-163" value="agent_id" style="shape=partialRectangle;connectable=0;fillColor=none;top=0;left=0;bottom=0;right=0;align=left;spacingLeft=6;overflow=hidden;" parent="fwAwZjWYAgxhqmzoozVU-161" vertex="1">
          <mxGeometry x="30" width="150" height="30" as="geometry">
            <mxRectangle width="150" height="30" as="alternateBounds" />
          </mxGeometry>
        </mxCell>
        <mxCell id="fwAwZjWYAgxhqmzoozVU-164" value="InsuranceObject" style="shape=table;startSize=30;container=1;collapsible=1;childLayout=tableLayout;fixedRows=1;rowLines=0;fontStyle=1;align=center;resizeLast=1;" parent="1" vertex="1">
          <mxGeometry x="640" y="970" width="176" height="150" as="geometry">
            <mxRectangle x="767" y="940" width="130" height="30" as="alternateBounds" />
          </mxGeometry>
        </mxCell>
        <mxCell id="fwAwZjWYAgxhqmzoozVU-165" value="" style="shape=tableRow;horizontal=0;startSize=0;swimlaneHead=0;swimlaneBody=0;fillColor=none;collapsible=0;dropTarget=0;points=[[0,0.5],[1,0.5]];portConstraint=eastwest;top=0;left=0;right=0;bottom=1;" parent="fwAwZjWYAgxhqmzoozVU-164" vertex="1">
          <mxGeometry y="30" width="176" height="30" as="geometry" />
        </mxCell>
        <mxCell id="fwAwZjWYAgxhqmzoozVU-166" value="PK" style="shape=partialRectangle;connectable=0;fillColor=none;top=0;left=0;bottom=0;right=0;fontStyle=1;overflow=hidden;" parent="fwAwZjWYAgxhqmzoozVU-165" vertex="1">
          <mxGeometry width="30" height="30" as="geometry">
            <mxRectangle width="30" height="30" as="alternateBounds" />
          </mxGeometry>
        </mxCell>
        <mxCell id="fwAwZjWYAgxhqmzoozVU-167" value="id" style="shape=partialRectangle;connectable=0;fillColor=none;top=0;left=0;bottom=0;right=0;align=left;spacingLeft=6;fontStyle=5;overflow=hidden;" parent="fwAwZjWYAgxhqmzoozVU-165" vertex="1">
          <mxGeometry x="30" width="146" height="30" as="geometry">
            <mxRectangle width="146" height="30" as="alternateBounds" />
          </mxGeometry>
        </mxCell>
        <mxCell id="fwAwZjWYAgxhqmzoozVU-168" value="" style="shape=tableRow;horizontal=0;startSize=0;swimlaneHead=0;swimlaneBody=0;fillColor=none;collapsible=0;dropTarget=0;points=[[0,0.5],[1,0.5]];portConstraint=eastwest;top=0;left=0;right=0;bottom=0;" parent="fwAwZjWYAgxhqmzoozVU-164" vertex="1">
          <mxGeometry y="60" width="176" height="30" as="geometry" />
        </mxCell>
        <mxCell id="fwAwZjWYAgxhqmzoozVU-169" value="" style="shape=partialRectangle;connectable=0;fillColor=none;top=0;left=0;bottom=0;right=0;editable=1;overflow=hidden;" parent="fwAwZjWYAgxhqmzoozVU-168" vertex="1">
          <mxGeometry width="30" height="30" as="geometry">
            <mxRectangle width="30" height="30" as="alternateBounds" />
          </mxGeometry>
        </mxCell>
        <mxCell id="fwAwZjWYAgxhqmzoozVU-170" value="name" style="shape=partialRectangle;connectable=0;fillColor=none;top=0;left=0;bottom=0;right=0;align=left;spacingLeft=6;overflow=hidden;" parent="fwAwZjWYAgxhqmzoozVU-168" vertex="1">
          <mxGeometry x="30" width="146" height="30" as="geometry">
            <mxRectangle width="146" height="30" as="alternateBounds" />
          </mxGeometry>
        </mxCell>
        <mxCell id="fwAwZjWYAgxhqmzoozVU-171" value="" style="shape=tableRow;horizontal=0;startSize=0;swimlaneHead=0;swimlaneBody=0;fillColor=none;collapsible=0;dropTarget=0;points=[[0,0.5],[1,0.5]];portConstraint=eastwest;top=0;left=0;right=0;bottom=0;" parent="fwAwZjWYAgxhqmzoozVU-164" vertex="1">
          <mxGeometry y="90" width="176" height="30" as="geometry" />
        </mxCell>
        <mxCell id="fwAwZjWYAgxhqmzoozVU-172" value="" style="shape=partialRectangle;connectable=0;fillColor=none;top=0;left=0;bottom=0;right=0;editable=1;overflow=hidden;" parent="fwAwZjWYAgxhqmzoozVU-171" vertex="1">
          <mxGeometry width="30" height="30" as="geometry">
            <mxRectangle width="30" height="30" as="alternateBounds" />
          </mxGeometry>
        </mxCell>
        <mxCell id="fwAwZjWYAgxhqmzoozVU-173" value="description" style="shape=partialRectangle;connectable=0;fillColor=none;top=0;left=0;bottom=0;right=0;align=left;spacingLeft=6;overflow=hidden;" parent="fwAwZjWYAgxhqmzoozVU-171" vertex="1">
          <mxGeometry x="30" width="146" height="30" as="geometry">
            <mxRectangle width="146" height="30" as="alternateBounds" />
          </mxGeometry>
        </mxCell>
        <mxCell id="fwAwZjWYAgxhqmzoozVU-192" value="" style="shape=tableRow;horizontal=0;startSize=0;swimlaneHead=0;swimlaneBody=0;fillColor=none;collapsible=0;dropTarget=0;points=[[0,0.5],[1,0.5]];portConstraint=eastwest;top=0;left=0;right=0;bottom=0;" parent="fwAwZjWYAgxhqmzoozVU-164" vertex="1">
          <mxGeometry y="120" width="176" height="30" as="geometry" />
        </mxCell>
        <mxCell id="fwAwZjWYAgxhqmzoozVU-193" value="FK" style="shape=partialRectangle;connectable=0;fillColor=none;top=0;left=0;bottom=0;right=0;editable=1;overflow=hidden;" parent="fwAwZjWYAgxhqmzoozVU-192" vertex="1">
          <mxGeometry width="30" height="30" as="geometry">
            <mxRectangle width="30" height="30" as="alternateBounds" />
          </mxGeometry>
        </mxCell>
        <mxCell id="fwAwZjWYAgxhqmzoozVU-194" value="client_id" style="shape=partialRectangle;connectable=0;fillColor=none;top=0;left=0;bottom=0;right=0;align=left;spacingLeft=6;overflow=hidden;" parent="fwAwZjWYAgxhqmzoozVU-192" vertex="1">
          <mxGeometry x="30" width="146" height="30" as="geometry">
            <mxRectangle width="146" height="30" as="alternateBounds" />
          </mxGeometry>
        </mxCell>
        <mxCell id="fwAwZjWYAgxhqmzoozVU-208" value="PromoCode" style="shape=table;startSize=30;container=1;collapsible=1;childLayout=tableLayout;fixedRows=1;rowLines=0;fontStyle=1;align=center;resizeLast=1;" parent="1" vertex="1">
          <mxGeometry x="1050" y="1410" width="176" height="180" as="geometry" />
        </mxCell>
        <mxCell id="fwAwZjWYAgxhqmzoozVU-209" value="" style="shape=tableRow;horizontal=0;startSize=0;swimlaneHead=0;swimlaneBody=0;fillColor=none;collapsible=0;dropTarget=0;points=[[0,0.5],[1,0.5]];portConstraint=eastwest;top=0;left=0;right=0;bottom=1;" parent="fwAwZjWYAgxhqmzoozVU-208" vertex="1">
          <mxGeometry y="30" width="176" height="30" as="geometry" />
        </mxCell>
        <mxCell id="fwAwZjWYAgxhqmzoozVU-210" value="PK" style="shape=partialRectangle;connectable=0;fillColor=none;top=0;left=0;bottom=0;right=0;fontStyle=1;overflow=hidden;" parent="fwAwZjWYAgxhqmzoozVU-209" vertex="1">
          <mxGeometry width="30" height="30" as="geometry">
            <mxRectangle width="30" height="30" as="alternateBounds" />
          </mxGeometry>
        </mxCell>
        <mxCell id="fwAwZjWYAgxhqmzoozVU-211" value="id" style="shape=partialRectangle;connectable=0;fillColor=none;top=0;left=0;bottom=0;right=0;align=left;spacingLeft=6;fontStyle=5;overflow=hidden;" parent="fwAwZjWYAgxhqmzoozVU-209" vertex="1">
          <mxGeometry x="30" width="146" height="30" as="geometry">
            <mxRectangle width="146" height="30" as="alternateBounds" />
          </mxGeometry>
        </mxCell>
        <mxCell id="fwAwZjWYAgxhqmzoozVU-212" value="" style="shape=tableRow;horizontal=0;startSize=0;swimlaneHead=0;swimlaneBody=0;fillColor=none;collapsible=0;dropTarget=0;points=[[0,0.5],[1,0.5]];portConstraint=eastwest;top=0;left=0;right=0;bottom=0;" parent="fwAwZjWYAgxhqmzoozVU-208" vertex="1">
          <mxGeometry y="60" width="176" height="30" as="geometry" />
        </mxCell>
        <mxCell id="fwAwZjWYAgxhqmzoozVU-213" value="" style="shape=partialRectangle;connectable=0;fillColor=none;top=0;left=0;bottom=0;right=0;editable=1;overflow=hidden;" parent="fwAwZjWYAgxhqmzoozVU-212" vertex="1">
          <mxGeometry width="30" height="30" as="geometry">
            <mxRectangle width="30" height="30" as="alternateBounds" />
          </mxGeometry>
        </mxCell>
        <mxCell id="fwAwZjWYAgxhqmzoozVU-214" value="code" style="shape=partialRectangle;connectable=0;fillColor=none;top=0;left=0;bottom=0;right=0;align=left;spacingLeft=6;overflow=hidden;" parent="fwAwZjWYAgxhqmzoozVU-212" vertex="1">
          <mxGeometry x="30" width="146" height="30" as="geometry">
            <mxRectangle width="146" height="30" as="alternateBounds" />
          </mxGeometry>
        </mxCell>
        <mxCell id="fwAwZjWYAgxhqmzoozVU-215" value="" style="shape=tableRow;horizontal=0;startSize=0;swimlaneHead=0;swimlaneBody=0;fillColor=none;collapsible=0;dropTarget=0;points=[[0,0.5],[1,0.5]];portConstraint=eastwest;top=0;left=0;right=0;bottom=0;" parent="fwAwZjWYAgxhqmzoozVU-208" vertex="1">
          <mxGeometry y="90" width="176" height="30" as="geometry" />
        </mxCell>
        <mxCell id="fwAwZjWYAgxhqmzoozVU-216" value="" style="shape=partialRectangle;connectable=0;fillColor=none;top=0;left=0;bottom=0;right=0;editable=1;overflow=hidden;" parent="fwAwZjWYAgxhqmzoozVU-215" vertex="1">
          <mxGeometry width="30" height="30" as="geometry">
            <mxRectangle width="30" height="30" as="alternateBounds" />
          </mxGeometry>
        </mxCell>
        <mxCell id="fwAwZjWYAgxhqmzoozVU-217" value="discount" style="shape=partialRectangle;connectable=0;fillColor=none;top=0;left=0;bottom=0;right=0;align=left;spacingLeft=6;overflow=hidden;" parent="fwAwZjWYAgxhqmzoozVU-215" vertex="1">
          <mxGeometry x="30" width="146" height="30" as="geometry">
            <mxRectangle width="146" height="30" as="alternateBounds" />
          </mxGeometry>
        </mxCell>
        <mxCell id="CUYrlprS8ljqRvmOuSEW-24" value="" style="shape=tableRow;horizontal=0;startSize=0;swimlaneHead=0;swimlaneBody=0;fillColor=none;collapsible=0;dropTarget=0;points=[[0,0.5],[1,0.5]];portConstraint=eastwest;top=0;left=0;right=0;bottom=0;" parent="fwAwZjWYAgxhqmzoozVU-208" vertex="1">
          <mxGeometry y="120" width="176" height="30" as="geometry" />
        </mxCell>
        <mxCell id="CUYrlprS8ljqRvmOuSEW-25" value="" style="shape=partialRectangle;connectable=0;fillColor=none;top=0;left=0;bottom=0;right=0;editable=1;overflow=hidden;" parent="CUYrlprS8ljqRvmOuSEW-24" vertex="1">
          <mxGeometry width="30" height="30" as="geometry">
            <mxRectangle width="30" height="30" as="alternateBounds" />
          </mxGeometry>
        </mxCell>
        <mxCell id="CUYrlprS8ljqRvmOuSEW-26" value="from_date" style="shape=partialRectangle;connectable=0;fillColor=none;top=0;left=0;bottom=0;right=0;align=left;spacingLeft=6;overflow=hidden;" parent="CUYrlprS8ljqRvmOuSEW-24" vertex="1">
          <mxGeometry x="30" width="146" height="30" as="geometry">
            <mxRectangle width="146" height="30" as="alternateBounds" />
          </mxGeometry>
        </mxCell>
        <mxCell id="CUYrlprS8ljqRvmOuSEW-27" value="" style="shape=tableRow;horizontal=0;startSize=0;swimlaneHead=0;swimlaneBody=0;fillColor=none;collapsible=0;dropTarget=0;points=[[0,0.5],[1,0.5]];portConstraint=eastwest;top=0;left=0;right=0;bottom=0;" parent="fwAwZjWYAgxhqmzoozVU-208" vertex="1">
          <mxGeometry y="150" width="176" height="30" as="geometry" />
        </mxCell>
        <mxCell id="CUYrlprS8ljqRvmOuSEW-28" value="" style="shape=partialRectangle;connectable=0;fillColor=none;top=0;left=0;bottom=0;right=0;editable=1;overflow=hidden;" parent="CUYrlprS8ljqRvmOuSEW-27" vertex="1">
          <mxGeometry width="30" height="30" as="geometry">
            <mxRectangle width="30" height="30" as="alternateBounds" />
          </mxGeometry>
        </mxCell>
        <mxCell id="CUYrlprS8ljqRvmOuSEW-29" value="to_date" style="shape=partialRectangle;connectable=0;fillColor=none;top=0;left=0;bottom=0;right=0;align=left;spacingLeft=6;overflow=hidden;" parent="CUYrlprS8ljqRvmOuSEW-27" vertex="1">
          <mxGeometry x="30" width="146" height="30" as="geometry">
            <mxRectangle width="146" height="30" as="alternateBounds" />
          </mxGeometry>
        </mxCell>
        <mxCell id="fwAwZjWYAgxhqmzoozVU-222" value="" style="edgeStyle=entityRelationEdgeStyle;fontSize=12;html=1;endArrow=ERoneToMany;rounded=0;entryX=1;entryY=0.5;entryDx=0;entryDy=0;exitX=1;exitY=0.5;exitDx=0;exitDy=0;" parent="1" source="fwAwZjWYAgxhqmzoozVU-5" target="fwAwZjWYAgxhqmzoozVU-161" edge="1">
          <mxGeometry width="100" height="100" relative="1" as="geometry">
            <mxPoint x="310" y="1030" as="sourcePoint" />
            <mxPoint x="410" y="930" as="targetPoint" />
          </mxGeometry>
        </mxCell>
        <mxCell id="fwAwZjWYAgxhqmzoozVU-223" value="" style="edgeStyle=entityRelationEdgeStyle;fontSize=12;html=1;endArrow=ERoneToMany;rounded=0;entryX=1;entryY=0.5;entryDx=0;entryDy=0;exitX=0;exitY=0.5;exitDx=0;exitDy=0;" parent="1" source="fwAwZjWYAgxhqmzoozVU-5" target="fwAwZjWYAgxhqmzoozVU-133" edge="1">
          <mxGeometry width="100" height="100" relative="1" as="geometry">
            <mxPoint x="140" y="1070" as="sourcePoint" />
            <mxPoint x="240" y="970" as="targetPoint" />
          </mxGeometry>
        </mxCell>
        <mxCell id="fwAwZjWYAgxhqmzoozVU-224" value="" style="edgeStyle=entityRelationEdgeStyle;fontSize=12;html=1;endArrow=ERoneToMany;rounded=0;entryX=1;entryY=0.5;entryDx=0;entryDy=0;exitX=0;exitY=0.5;exitDx=0;exitDy=0;" parent="1" source="fwAwZjWYAgxhqmzoozVU-31" target="fwAwZjWYAgxhqmzoozVU-192" edge="1">
          <mxGeometry width="100" height="100" relative="1" as="geometry">
            <mxPoint x="910" y="930" as="sourcePoint" />
            <mxPoint x="720" y="670" as="targetPoint" />
          </mxGeometry>
        </mxCell>
        <mxCell id="fwAwZjWYAgxhqmzoozVU-226" value="" style="edgeStyle=entityRelationEdgeStyle;fontSize=12;html=1;endArrow=ERoneToMany;rounded=0;entryX=1;entryY=0.5;entryDx=0;entryDy=0;exitX=0;exitY=0.5;exitDx=0;exitDy=0;" parent="1" source="fwAwZjWYAgxhqmzoozVU-31" target="fwAwZjWYAgxhqmzoozVU-105" edge="1">
          <mxGeometry width="100" height="100" relative="1" as="geometry">
            <mxPoint x="740" y="670" as="sourcePoint" />
            <mxPoint x="840" y="570" as="targetPoint" />
          </mxGeometry>
        </mxCell>
        <mxCell id="fwAwZjWYAgxhqmzoozVU-228" value="" style="edgeStyle=entityRelationEdgeStyle;fontSize=12;html=1;endArrow=ERoneToMany;rounded=0;entryX=1;entryY=0.5;entryDx=0;entryDy=0;exitX=0;exitY=0.5;exitDx=0;exitDy=0;" parent="1" source="fwAwZjWYAgxhqmzoozVU-18" target="fwAwZjWYAgxhqmzoozVU-152" edge="1">
          <mxGeometry width="100" height="100" relative="1" as="geometry">
            <mxPoint x="550" y="820" as="sourcePoint" />
            <mxPoint x="650" y="720" as="targetPoint" />
          </mxGeometry>
        </mxCell>
        <mxCell id="fwAwZjWYAgxhqmzoozVU-229" value="" style="edgeStyle=entityRelationEdgeStyle;fontSize=12;html=1;endArrow=ERoneToMany;rounded=0;entryX=0;entryY=0.5;entryDx=0;entryDy=0;exitX=1;exitY=0.5;exitDx=0;exitDy=0;" parent="1" source="fwAwZjWYAgxhqmzoozVU-233" target="fwAwZjWYAgxhqmzoozVU-161" edge="1">
          <mxGeometry width="100" height="100" relative="1" as="geometry">
            <mxPoint x="150" y="870" as="sourcePoint" />
            <mxPoint x="250" y="770" as="targetPoint" />
          </mxGeometry>
        </mxCell>
        <mxCell id="fwAwZjWYAgxhqmzoozVU-230" value="" style="edgeStyle=entityRelationEdgeStyle;fontSize=12;html=1;endArrow=ERoneToMany;rounded=0;entryX=1;entryY=0.5;entryDx=0;entryDy=0;exitX=0;exitY=0.5;exitDx=0;exitDy=0;" parent="1" source="fwAwZjWYAgxhqmzoozVU-164" target="fwAwZjWYAgxhqmzoozVU-155" edge="1">
          <mxGeometry width="100" height="100" relative="1" as="geometry">
            <mxPoint x="650" y="910" as="sourcePoint" />
            <mxPoint x="700" y="780" as="targetPoint" />
          </mxGeometry>
        </mxCell>
        <mxCell id="fwAwZjWYAgxhqmzoozVU-233" value="Agent" style="shape=table;startSize=30;container=1;collapsible=1;childLayout=tableLayout;fixedRows=1;rowLines=0;fontStyle=1;align=center;resizeLast=1;" parent="1" vertex="1">
          <mxGeometry x="130" y="900" width="180" height="310" as="geometry">
            <mxRectangle x="130" y="920" width="70" height="30" as="alternateBounds" />
          </mxGeometry>
        </mxCell>
        <mxCell id="fwAwZjWYAgxhqmzoozVU-115" value="" style="shape=tableRow;horizontal=0;startSize=0;swimlaneHead=0;swimlaneBody=0;fillColor=none;collapsible=0;dropTarget=0;points=[[0,0.5],[1,0.5]];portConstraint=eastwest;top=0;left=0;right=0;bottom=1;" parent="fwAwZjWYAgxhqmzoozVU-233" vertex="1">
          <mxGeometry y="30" width="180" height="30" as="geometry" />
        </mxCell>
        <mxCell id="fwAwZjWYAgxhqmzoozVU-116" value="PK" style="shape=partialRectangle;connectable=0;fillColor=none;top=0;left=0;bottom=0;right=0;fontStyle=1;overflow=hidden;" parent="fwAwZjWYAgxhqmzoozVU-115" vertex="1">
          <mxGeometry width="30" height="30" as="geometry">
            <mxRectangle width="30" height="30" as="alternateBounds" />
          </mxGeometry>
        </mxCell>
        <mxCell id="fwAwZjWYAgxhqmzoozVU-117" value="id" style="shape=partialRectangle;connectable=0;fillColor=none;top=0;left=0;bottom=0;right=0;align=left;spacingLeft=6;fontStyle=5;overflow=hidden;" parent="fwAwZjWYAgxhqmzoozVU-115" vertex="1">
          <mxGeometry x="30" width="150" height="30" as="geometry">
            <mxRectangle width="150" height="30" as="alternateBounds" />
          </mxGeometry>
        </mxCell>
        <mxCell id="fwAwZjWYAgxhqmzoozVU-118" value="" style="shape=tableRow;horizontal=0;startSize=0;swimlaneHead=0;swimlaneBody=0;fillColor=none;collapsible=0;dropTarget=0;points=[[0,0.5],[1,0.5]];portConstraint=eastwest;top=0;left=0;right=0;bottom=0;" parent="fwAwZjWYAgxhqmzoozVU-233" vertex="1">
          <mxGeometry y="60" width="180" height="30" as="geometry" />
        </mxCell>
        <mxCell id="fwAwZjWYAgxhqmzoozVU-119" value="" style="shape=partialRectangle;connectable=0;fillColor=none;top=0;left=0;bottom=0;right=0;editable=1;overflow=hidden;" parent="fwAwZjWYAgxhqmzoozVU-118" vertex="1">
          <mxGeometry width="30" height="30" as="geometry">
            <mxRectangle width="30" height="30" as="alternateBounds" />
          </mxGeometry>
        </mxCell>
        <mxCell id="fwAwZjWYAgxhqmzoozVU-120" value="first_name" style="shape=partialRectangle;connectable=0;fillColor=none;top=0;left=0;bottom=0;right=0;align=left;spacingLeft=6;overflow=hidden;" parent="fwAwZjWYAgxhqmzoozVU-118" vertex="1">
          <mxGeometry x="30" width="150" height="30" as="geometry">
            <mxRectangle width="150" height="30" as="alternateBounds" />
          </mxGeometry>
        </mxCell>
        <mxCell id="fwAwZjWYAgxhqmzoozVU-121" value="" style="shape=tableRow;horizontal=0;startSize=0;swimlaneHead=0;swimlaneBody=0;fillColor=none;collapsible=0;dropTarget=0;points=[[0,0.5],[1,0.5]];portConstraint=eastwest;top=0;left=0;right=0;bottom=0;" parent="fwAwZjWYAgxhqmzoozVU-233" vertex="1">
          <mxGeometry y="90" width="180" height="30" as="geometry" />
        </mxCell>
        <mxCell id="fwAwZjWYAgxhqmzoozVU-122" value="" style="shape=partialRectangle;connectable=0;fillColor=none;top=0;left=0;bottom=0;right=0;editable=1;overflow=hidden;" parent="fwAwZjWYAgxhqmzoozVU-121" vertex="1">
          <mxGeometry width="30" height="30" as="geometry">
            <mxRectangle width="30" height="30" as="alternateBounds" />
          </mxGeometry>
        </mxCell>
        <mxCell id="fwAwZjWYAgxhqmzoozVU-123" value="last_name" style="shape=partialRectangle;connectable=0;fillColor=none;top=0;left=0;bottom=0;right=0;align=left;spacingLeft=6;overflow=hidden;" parent="fwAwZjWYAgxhqmzoozVU-121" vertex="1">
          <mxGeometry x="30" width="150" height="30" as="geometry">
            <mxRectangle width="150" height="30" as="alternateBounds" />
          </mxGeometry>
        </mxCell>
        <mxCell id="fwAwZjWYAgxhqmzoozVU-124" value="" style="shape=tableRow;horizontal=0;startSize=0;swimlaneHead=0;swimlaneBody=0;fillColor=none;collapsible=0;dropTarget=0;points=[[0,0.5],[1,0.5]];portConstraint=eastwest;top=0;left=0;right=0;bottom=0;" parent="fwAwZjWYAgxhqmzoozVU-233" vertex="1">
          <mxGeometry y="120" width="180" height="30" as="geometry" />
        </mxCell>
        <mxCell id="fwAwZjWYAgxhqmzoozVU-125" value="" style="shape=partialRectangle;connectable=0;fillColor=none;top=0;left=0;bottom=0;right=0;editable=1;overflow=hidden;" parent="fwAwZjWYAgxhqmzoozVU-124" vertex="1">
          <mxGeometry width="30" height="30" as="geometry">
            <mxRectangle width="30" height="30" as="alternateBounds" />
          </mxGeometry>
        </mxCell>
        <mxCell id="fwAwZjWYAgxhqmzoozVU-126" value="middle_name" style="shape=partialRectangle;connectable=0;fillColor=none;top=0;left=0;bottom=0;right=0;align=left;spacingLeft=6;overflow=hidden;" parent="fwAwZjWYAgxhqmzoozVU-124" vertex="1">
          <mxGeometry x="30" width="150" height="30" as="geometry">
            <mxRectangle width="150" height="30" as="alternateBounds" />
          </mxGeometry>
        </mxCell>
        <mxCell id="fwAwZjWYAgxhqmzoozVU-127" value="" style="shape=tableRow;horizontal=0;startSize=0;swimlaneHead=0;swimlaneBody=0;fillColor=none;collapsible=0;dropTarget=0;points=[[0,0.5],[1,0.5]];portConstraint=eastwest;top=0;left=0;right=0;bottom=0;" parent="fwAwZjWYAgxhqmzoozVU-233" vertex="1">
          <mxGeometry y="150" width="180" height="30" as="geometry" />
        </mxCell>
        <mxCell id="fwAwZjWYAgxhqmzoozVU-128" value="" style="shape=partialRectangle;connectable=0;fillColor=none;top=0;left=0;bottom=0;right=0;editable=1;overflow=hidden;" parent="fwAwZjWYAgxhqmzoozVU-127" vertex="1">
          <mxGeometry width="30" height="30" as="geometry">
            <mxRectangle width="30" height="30" as="alternateBounds" />
          </mxGeometry>
        </mxCell>
        <mxCell id="fwAwZjWYAgxhqmzoozVU-129" value="address" style="shape=partialRectangle;connectable=0;fillColor=none;top=0;left=0;bottom=0;right=0;align=left;spacingLeft=6;overflow=hidden;" parent="fwAwZjWYAgxhqmzoozVU-127" vertex="1">
          <mxGeometry x="30" width="150" height="30" as="geometry">
            <mxRectangle width="150" height="30" as="alternateBounds" />
          </mxGeometry>
        </mxCell>
        <mxCell id="fwAwZjWYAgxhqmzoozVU-130" value="" style="shape=tableRow;horizontal=0;startSize=0;swimlaneHead=0;swimlaneBody=0;fillColor=none;collapsible=0;dropTarget=0;points=[[0,0.5],[1,0.5]];portConstraint=eastwest;top=0;left=0;right=0;bottom=0;" parent="fwAwZjWYAgxhqmzoozVU-233" vertex="1">
          <mxGeometry y="180" width="180" height="30" as="geometry" />
        </mxCell>
        <mxCell id="fwAwZjWYAgxhqmzoozVU-131" value="" style="shape=partialRectangle;connectable=0;fillColor=none;top=0;left=0;bottom=0;right=0;editable=1;overflow=hidden;" parent="fwAwZjWYAgxhqmzoozVU-130" vertex="1">
          <mxGeometry width="30" height="30" as="geometry">
            <mxRectangle width="30" height="30" as="alternateBounds" />
          </mxGeometry>
        </mxCell>
        <mxCell id="fwAwZjWYAgxhqmzoozVU-132" value="phone" style="shape=partialRectangle;connectable=0;fillColor=none;top=0;left=0;bottom=0;right=0;align=left;spacingLeft=6;overflow=hidden;" parent="fwAwZjWYAgxhqmzoozVU-130" vertex="1">
          <mxGeometry x="30" width="150" height="30" as="geometry">
            <mxRectangle width="150" height="30" as="alternateBounds" />
          </mxGeometry>
        </mxCell>
        <mxCell id="CUYrlprS8ljqRvmOuSEW-67" value="" style="shape=tableRow;horizontal=0;startSize=0;swimlaneHead=0;swimlaneBody=0;fillColor=none;collapsible=0;dropTarget=0;points=[[0,0.5],[1,0.5]];portConstraint=eastwest;top=0;left=0;right=0;bottom=0;" parent="fwAwZjWYAgxhqmzoozVU-233" vertex="1">
          <mxGeometry y="210" width="180" height="30" as="geometry" />
        </mxCell>
        <mxCell id="CUYrlprS8ljqRvmOuSEW-68" value="" style="shape=partialRectangle;connectable=0;fillColor=none;top=0;left=0;bottom=0;right=0;editable=1;overflow=hidden;" parent="CUYrlprS8ljqRvmOuSEW-67" vertex="1">
          <mxGeometry width="30" height="30" as="geometry">
            <mxRectangle width="30" height="30" as="alternateBounds" />
          </mxGeometry>
        </mxCell>
        <mxCell id="CUYrlprS8ljqRvmOuSEW-69" value="photo_url" style="shape=partialRectangle;connectable=0;fillColor=none;top=0;left=0;bottom=0;right=0;align=left;spacingLeft=6;overflow=hidden;" parent="CUYrlprS8ljqRvmOuSEW-67" vertex="1">
          <mxGeometry x="30" width="150" height="30" as="geometry">
            <mxRectangle width="150" height="30" as="alternateBounds" />
          </mxGeometry>
        </mxCell>
        <mxCell id="CUYrlprS8ljqRvmOuSEW-64" value="" style="shape=tableRow;horizontal=0;startSize=0;swimlaneHead=0;swimlaneBody=0;fillColor=none;collapsible=0;dropTarget=0;points=[[0,0.5],[1,0.5]];portConstraint=eastwest;top=0;left=0;right=0;bottom=0;" parent="fwAwZjWYAgxhqmzoozVU-233" vertex="1">
          <mxGeometry y="240" width="180" height="30" as="geometry" />
        </mxCell>
        <mxCell id="CUYrlprS8ljqRvmOuSEW-65" value="" style="shape=partialRectangle;connectable=0;fillColor=none;top=0;left=0;bottom=0;right=0;editable=1;overflow=hidden;" parent="CUYrlprS8ljqRvmOuSEW-64" vertex="1">
          <mxGeometry width="30" height="30" as="geometry">
            <mxRectangle width="30" height="30" as="alternateBounds" />
          </mxGeometry>
        </mxCell>
        <mxCell id="CUYrlprS8ljqRvmOuSEW-66" value="email" style="shape=partialRectangle;connectable=0;fillColor=none;top=0;left=0;bottom=0;right=0;align=left;spacingLeft=6;overflow=hidden;" parent="CUYrlprS8ljqRvmOuSEW-64" vertex="1">
          <mxGeometry x="30" width="150" height="30" as="geometry">
            <mxRectangle width="150" height="30" as="alternateBounds" />
          </mxGeometry>
        </mxCell>
        <mxCell id="fwAwZjWYAgxhqmzoozVU-133" value="" style="shape=tableRow;horizontal=0;startSize=0;swimlaneHead=0;swimlaneBody=0;fillColor=none;collapsible=0;dropTarget=0;points=[[0,0.5],[1,0.5]];portConstraint=eastwest;top=0;left=0;right=0;bottom=0;" parent="fwAwZjWYAgxhqmzoozVU-233" vertex="1">
          <mxGeometry y="270" width="180" height="30" as="geometry" />
        </mxCell>
        <mxCell id="fwAwZjWYAgxhqmzoozVU-134" value="FK" style="shape=partialRectangle;connectable=0;fillColor=none;top=0;left=0;bottom=0;right=0;editable=1;overflow=hidden;" parent="fwAwZjWYAgxhqmzoozVU-133" vertex="1">
          <mxGeometry width="30" height="30" as="geometry">
            <mxRectangle width="30" height="30" as="alternateBounds" />
          </mxGeometry>
        </mxCell>
        <mxCell id="fwAwZjWYAgxhqmzoozVU-135" value="branch_id" style="shape=partialRectangle;connectable=0;fillColor=none;top=0;left=0;bottom=0;right=0;align=left;spacingLeft=6;overflow=hidden;" parent="fwAwZjWYAgxhqmzoozVU-133" vertex="1">
          <mxGeometry x="30" width="150" height="30" as="geometry">
            <mxRectangle width="150" height="30" as="alternateBounds" />
          </mxGeometry>
        </mxCell>
        <mxCell id="fwAwZjWYAgxhqmzoozVU-246" value="" style="edgeStyle=entityRelationEdgeStyle;fontSize=12;html=1;endArrow=ERoneToMany;rounded=0;exitX=0;exitY=0.5;exitDx=0;exitDy=0;entryX=0;entryY=0.5;entryDx=0;entryDy=0;" parent="1" source="fwAwZjWYAgxhqmzoozVU-233" target="fwAwZjWYAgxhqmzoozVU-108" edge="1">
          <mxGeometry width="100" height="100" relative="1" as="geometry">
            <mxPoint x="210" y="960" as="sourcePoint" />
            <mxPoint x="30" y="810" as="targetPoint" />
          </mxGeometry>
        </mxCell>
        <mxCell id="CUYrlprS8ljqRvmOuSEW-1" value="FAQ" style="shape=table;startSize=30;container=1;collapsible=1;childLayout=tableLayout;fixedRows=1;rowLines=0;fontStyle=1;align=center;resizeLast=1;" parent="1" vertex="1">
          <mxGeometry x="860" y="1410" width="176" height="150" as="geometry" />
        </mxCell>
        <mxCell id="CUYrlprS8ljqRvmOuSEW-2" value="" style="shape=tableRow;horizontal=0;startSize=0;swimlaneHead=0;swimlaneBody=0;fillColor=none;collapsible=0;dropTarget=0;points=[[0,0.5],[1,0.5]];portConstraint=eastwest;top=0;left=0;right=0;bottom=1;" parent="CUYrlprS8ljqRvmOuSEW-1" vertex="1">
          <mxGeometry y="30" width="176" height="30" as="geometry" />
        </mxCell>
        <mxCell id="CUYrlprS8ljqRvmOuSEW-3" value="PK" style="shape=partialRectangle;connectable=0;fillColor=none;top=0;left=0;bottom=0;right=0;fontStyle=1;overflow=hidden;" parent="CUYrlprS8ljqRvmOuSEW-2" vertex="1">
          <mxGeometry width="30" height="30" as="geometry">
            <mxRectangle width="30" height="30" as="alternateBounds" />
          </mxGeometry>
        </mxCell>
        <mxCell id="CUYrlprS8ljqRvmOuSEW-4" value="id" style="shape=partialRectangle;connectable=0;fillColor=none;top=0;left=0;bottom=0;right=0;align=left;spacingLeft=6;fontStyle=5;overflow=hidden;" parent="CUYrlprS8ljqRvmOuSEW-2" vertex="1">
          <mxGeometry x="30" width="146" height="30" as="geometry">
            <mxRectangle width="146" height="30" as="alternateBounds" />
          </mxGeometry>
        </mxCell>
        <mxCell id="CUYrlprS8ljqRvmOuSEW-5" value="" style="shape=tableRow;horizontal=0;startSize=0;swimlaneHead=0;swimlaneBody=0;fillColor=none;collapsible=0;dropTarget=0;points=[[0,0.5],[1,0.5]];portConstraint=eastwest;top=0;left=0;right=0;bottom=0;" parent="CUYrlprS8ljqRvmOuSEW-1" vertex="1">
          <mxGeometry y="60" width="176" height="30" as="geometry" />
        </mxCell>
        <mxCell id="CUYrlprS8ljqRvmOuSEW-6" value="" style="shape=partialRectangle;connectable=0;fillColor=none;top=0;left=0;bottom=0;right=0;editable=1;overflow=hidden;" parent="CUYrlprS8ljqRvmOuSEW-5" vertex="1">
          <mxGeometry width="30" height="30" as="geometry">
            <mxRectangle width="30" height="30" as="alternateBounds" />
          </mxGeometry>
        </mxCell>
        <mxCell id="CUYrlprS8ljqRvmOuSEW-7" value="question" style="shape=partialRectangle;connectable=0;fillColor=none;top=0;left=0;bottom=0;right=0;align=left;spacingLeft=6;overflow=hidden;" parent="CUYrlprS8ljqRvmOuSEW-5" vertex="1">
          <mxGeometry x="30" width="146" height="30" as="geometry">
            <mxRectangle width="146" height="30" as="alternateBounds" />
          </mxGeometry>
        </mxCell>
        <mxCell id="CUYrlprS8ljqRvmOuSEW-8" value="" style="shape=tableRow;horizontal=0;startSize=0;swimlaneHead=0;swimlaneBody=0;fillColor=none;collapsible=0;dropTarget=0;points=[[0,0.5],[1,0.5]];portConstraint=eastwest;top=0;left=0;right=0;bottom=0;" parent="CUYrlprS8ljqRvmOuSEW-1" vertex="1">
          <mxGeometry y="90" width="176" height="30" as="geometry" />
        </mxCell>
        <mxCell id="CUYrlprS8ljqRvmOuSEW-9" value="" style="shape=partialRectangle;connectable=0;fillColor=none;top=0;left=0;bottom=0;right=0;editable=1;overflow=hidden;" parent="CUYrlprS8ljqRvmOuSEW-8" vertex="1">
          <mxGeometry width="30" height="30" as="geometry">
            <mxRectangle width="30" height="30" as="alternateBounds" />
          </mxGeometry>
        </mxCell>
        <mxCell id="CUYrlprS8ljqRvmOuSEW-10" value="answer" style="shape=partialRectangle;connectable=0;fillColor=none;top=0;left=0;bottom=0;right=0;align=left;spacingLeft=6;overflow=hidden;" parent="CUYrlprS8ljqRvmOuSEW-8" vertex="1">
          <mxGeometry x="30" width="146" height="30" as="geometry">
            <mxRectangle width="146" height="30" as="alternateBounds" />
          </mxGeometry>
        </mxCell>
        <mxCell id="CUYrlprS8ljqRvmOuSEW-11" value="" style="shape=tableRow;horizontal=0;startSize=0;swimlaneHead=0;swimlaneBody=0;fillColor=none;collapsible=0;dropTarget=0;points=[[0,0.5],[1,0.5]];portConstraint=eastwest;top=0;left=0;right=0;bottom=0;" parent="CUYrlprS8ljqRvmOuSEW-1" vertex="1">
          <mxGeometry y="120" width="176" height="30" as="geometry" />
        </mxCell>
        <mxCell id="CUYrlprS8ljqRvmOuSEW-12" value="" style="shape=partialRectangle;connectable=0;fillColor=none;top=0;left=0;bottom=0;right=0;editable=1;overflow=hidden;" parent="CUYrlprS8ljqRvmOuSEW-11" vertex="1">
          <mxGeometry width="30" height="30" as="geometry">
            <mxRectangle width="30" height="30" as="alternateBounds" />
          </mxGeometry>
        </mxCell>
        <mxCell id="CUYrlprS8ljqRvmOuSEW-13" value="datetime" style="shape=partialRectangle;connectable=0;fillColor=none;top=0;left=0;bottom=0;right=0;align=left;spacingLeft=6;overflow=hidden;" parent="CUYrlprS8ljqRvmOuSEW-11" vertex="1">
          <mxGeometry x="30" width="146" height="30" as="geometry">
            <mxRectangle width="146" height="30" as="alternateBounds" />
          </mxGeometry>
        </mxCell>
        <mxCell id="CUYrlprS8ljqRvmOuSEW-30" value="Review" style="shape=table;startSize=30;container=1;collapsible=1;childLayout=tableLayout;fixedRows=1;rowLines=0;fontStyle=1;align=center;resizeLast=1;" parent="1" vertex="1">
          <mxGeometry x="1090" y="480" width="176" height="180" as="geometry" />
        </mxCell>
        <mxCell id="CUYrlprS8ljqRvmOuSEW-31" value="" style="shape=tableRow;horizontal=0;startSize=0;swimlaneHead=0;swimlaneBody=0;fillColor=none;collapsible=0;dropTarget=0;points=[[0,0.5],[1,0.5]];portConstraint=eastwest;top=0;left=0;right=0;bottom=1;" parent="CUYrlprS8ljqRvmOuSEW-30" vertex="1">
          <mxGeometry y="30" width="176" height="30" as="geometry" />
        </mxCell>
        <mxCell id="CUYrlprS8ljqRvmOuSEW-32" value="PK" style="shape=partialRectangle;connectable=0;fillColor=none;top=0;left=0;bottom=0;right=0;fontStyle=1;overflow=hidden;" parent="CUYrlprS8ljqRvmOuSEW-31" vertex="1">
          <mxGeometry width="30" height="30" as="geometry">
            <mxRectangle width="30" height="30" as="alternateBounds" />
          </mxGeometry>
        </mxCell>
        <mxCell id="CUYrlprS8ljqRvmOuSEW-33" value="id" style="shape=partialRectangle;connectable=0;fillColor=none;top=0;left=0;bottom=0;right=0;align=left;spacingLeft=6;fontStyle=5;overflow=hidden;" parent="CUYrlprS8ljqRvmOuSEW-31" vertex="1">
          <mxGeometry x="30" width="146" height="30" as="geometry">
            <mxRectangle width="146" height="30" as="alternateBounds" />
          </mxGeometry>
        </mxCell>
        <mxCell id="CUYrlprS8ljqRvmOuSEW-34" value="" style="shape=tableRow;horizontal=0;startSize=0;swimlaneHead=0;swimlaneBody=0;fillColor=none;collapsible=0;dropTarget=0;points=[[0,0.5],[1,0.5]];portConstraint=eastwest;top=0;left=0;right=0;bottom=0;" parent="CUYrlprS8ljqRvmOuSEW-30" vertex="1">
          <mxGeometry y="60" width="176" height="30" as="geometry" />
        </mxCell>
        <mxCell id="CUYrlprS8ljqRvmOuSEW-35" value="" style="shape=partialRectangle;connectable=0;fillColor=none;top=0;left=0;bottom=0;right=0;editable=1;overflow=hidden;" parent="CUYrlprS8ljqRvmOuSEW-34" vertex="1">
          <mxGeometry width="30" height="30" as="geometry">
            <mxRectangle width="30" height="30" as="alternateBounds" />
          </mxGeometry>
        </mxCell>
        <mxCell id="CUYrlprS8ljqRvmOuSEW-36" value="client_id" style="shape=partialRectangle;connectable=0;fillColor=none;top=0;left=0;bottom=0;right=0;align=left;spacingLeft=6;overflow=hidden;" parent="CUYrlprS8ljqRvmOuSEW-34" vertex="1">
          <mxGeometry x="30" width="146" height="30" as="geometry">
            <mxRectangle width="146" height="30" as="alternateBounds" />
          </mxGeometry>
        </mxCell>
        <mxCell id="CUYrlprS8ljqRvmOuSEW-37" value="" style="shape=tableRow;horizontal=0;startSize=0;swimlaneHead=0;swimlaneBody=0;fillColor=none;collapsible=0;dropTarget=0;points=[[0,0.5],[1,0.5]];portConstraint=eastwest;top=0;left=0;right=0;bottom=0;" parent="CUYrlprS8ljqRvmOuSEW-30" vertex="1">
          <mxGeometry y="90" width="176" height="30" as="geometry" />
        </mxCell>
        <mxCell id="CUYrlprS8ljqRvmOuSEW-38" value="" style="shape=partialRectangle;connectable=0;fillColor=none;top=0;left=0;bottom=0;right=0;editable=1;overflow=hidden;" parent="CUYrlprS8ljqRvmOuSEW-37" vertex="1">
          <mxGeometry width="30" height="30" as="geometry">
            <mxRectangle width="30" height="30" as="alternateBounds" />
          </mxGeometry>
        </mxCell>
        <mxCell id="CUYrlprS8ljqRvmOuSEW-39" value="body" style="shape=partialRectangle;connectable=0;fillColor=none;top=0;left=0;bottom=0;right=0;align=left;spacingLeft=6;overflow=hidden;" parent="CUYrlprS8ljqRvmOuSEW-37" vertex="1">
          <mxGeometry x="30" width="146" height="30" as="geometry">
            <mxRectangle width="146" height="30" as="alternateBounds" />
          </mxGeometry>
        </mxCell>
        <mxCell id="CUYrlprS8ljqRvmOuSEW-40" value="" style="shape=tableRow;horizontal=0;startSize=0;swimlaneHead=0;swimlaneBody=0;fillColor=none;collapsible=0;dropTarget=0;points=[[0,0.5],[1,0.5]];portConstraint=eastwest;top=0;left=0;right=0;bottom=0;" parent="CUYrlprS8ljqRvmOuSEW-30" vertex="1">
          <mxGeometry y="120" width="176" height="30" as="geometry" />
        </mxCell>
        <mxCell id="CUYrlprS8ljqRvmOuSEW-41" value="" style="shape=partialRectangle;connectable=0;fillColor=none;top=0;left=0;bottom=0;right=0;editable=1;overflow=hidden;" parent="CUYrlprS8ljqRvmOuSEW-40" vertex="1">
          <mxGeometry width="30" height="30" as="geometry">
            <mxRectangle width="30" height="30" as="alternateBounds" />
          </mxGeometry>
        </mxCell>
        <mxCell id="CUYrlprS8ljqRvmOuSEW-42" value="datetime" style="shape=partialRectangle;connectable=0;fillColor=none;top=0;left=0;bottom=0;right=0;align=left;spacingLeft=6;overflow=hidden;" parent="CUYrlprS8ljqRvmOuSEW-40" vertex="1">
          <mxGeometry x="30" width="146" height="30" as="geometry">
            <mxRectangle width="146" height="30" as="alternateBounds" />
          </mxGeometry>
        </mxCell>
        <mxCell id="CUYrlprS8ljqRvmOuSEW-43" value="" style="shape=tableRow;horizontal=0;startSize=0;swimlaneHead=0;swimlaneBody=0;fillColor=none;collapsible=0;dropTarget=0;points=[[0,0.5],[1,0.5]];portConstraint=eastwest;top=0;left=0;right=0;bottom=0;" parent="CUYrlprS8ljqRvmOuSEW-30" vertex="1">
          <mxGeometry y="150" width="176" height="30" as="geometry" />
        </mxCell>
        <mxCell id="CUYrlprS8ljqRvmOuSEW-44" value="" style="shape=partialRectangle;connectable=0;fillColor=none;top=0;left=0;bottom=0;right=0;editable=1;overflow=hidden;" parent="CUYrlprS8ljqRvmOuSEW-43" vertex="1">
          <mxGeometry width="30" height="30" as="geometry">
            <mxRectangle width="30" height="30" as="alternateBounds" />
          </mxGeometry>
        </mxCell>
        <mxCell id="CUYrlprS8ljqRvmOuSEW-45" value="rating" style="shape=partialRectangle;connectable=0;fillColor=none;top=0;left=0;bottom=0;right=0;align=left;spacingLeft=6;overflow=hidden;" parent="CUYrlprS8ljqRvmOuSEW-43" vertex="1">
          <mxGeometry x="30" width="146" height="30" as="geometry">
            <mxRectangle width="146" height="30" as="alternateBounds" />
          </mxGeometry>
        </mxCell>
        <mxCell id="CUYrlprS8ljqRvmOuSEW-46" value="" style="edgeStyle=entityRelationEdgeStyle;fontSize=12;html=1;endArrow=ERoneToMany;rounded=0;entryX=0;entryY=0.5;entryDx=0;entryDy=0;exitX=1;exitY=0.5;exitDx=0;exitDy=0;" parent="1" source="fwAwZjWYAgxhqmzoozVU-31" target="CUYrlprS8ljqRvmOuSEW-34" edge="1">
          <mxGeometry width="100" height="100" relative="1" as="geometry">
            <mxPoint x="940" y="630" as="sourcePoint" />
            <mxPoint x="1040" y="530" as="targetPoint" />
          </mxGeometry>
        </mxCell>
        <mxCell id="CUYrlprS8ljqRvmOuSEW-47" value="Vacancy" style="shape=table;startSize=30;container=1;collapsible=1;childLayout=tableLayout;fixedRows=1;rowLines=0;fontStyle=1;align=center;resizeLast=1;" parent="1" vertex="1">
          <mxGeometry x="134" y="1280" width="176" height="180" as="geometry" />
        </mxCell>
        <mxCell id="CUYrlprS8ljqRvmOuSEW-48" value="" style="shape=tableRow;horizontal=0;startSize=0;swimlaneHead=0;swimlaneBody=0;fillColor=none;collapsible=0;dropTarget=0;points=[[0,0.5],[1,0.5]];portConstraint=eastwest;top=0;left=0;right=0;bottom=1;" parent="CUYrlprS8ljqRvmOuSEW-47" vertex="1">
          <mxGeometry y="30" width="176" height="30" as="geometry" />
        </mxCell>
        <mxCell id="CUYrlprS8ljqRvmOuSEW-49" value="PK" style="shape=partialRectangle;connectable=0;fillColor=none;top=0;left=0;bottom=0;right=0;fontStyle=1;overflow=hidden;" parent="CUYrlprS8ljqRvmOuSEW-48" vertex="1">
          <mxGeometry width="30" height="30" as="geometry">
            <mxRectangle width="30" height="30" as="alternateBounds" />
          </mxGeometry>
        </mxCell>
        <mxCell id="CUYrlprS8ljqRvmOuSEW-50" value="id" style="shape=partialRectangle;connectable=0;fillColor=none;top=0;left=0;bottom=0;right=0;align=left;spacingLeft=6;fontStyle=5;overflow=hidden;" parent="CUYrlprS8ljqRvmOuSEW-48" vertex="1">
          <mxGeometry x="30" width="146" height="30" as="geometry">
            <mxRectangle width="146" height="30" as="alternateBounds" />
          </mxGeometry>
        </mxCell>
        <mxCell id="CUYrlprS8ljqRvmOuSEW-51" value="" style="shape=tableRow;horizontal=0;startSize=0;swimlaneHead=0;swimlaneBody=0;fillColor=none;collapsible=0;dropTarget=0;points=[[0,0.5],[1,0.5]];portConstraint=eastwest;top=0;left=0;right=0;bottom=0;" parent="CUYrlprS8ljqRvmOuSEW-47" vertex="1">
          <mxGeometry y="60" width="176" height="30" as="geometry" />
        </mxCell>
        <mxCell id="CUYrlprS8ljqRvmOuSEW-52" value="" style="shape=partialRectangle;connectable=0;fillColor=none;top=0;left=0;bottom=0;right=0;editable=1;overflow=hidden;" parent="CUYrlprS8ljqRvmOuSEW-51" vertex="1">
          <mxGeometry width="30" height="30" as="geometry">
            <mxRectangle width="30" height="30" as="alternateBounds" />
          </mxGeometry>
        </mxCell>
        <mxCell id="CUYrlprS8ljqRvmOuSEW-53" value="branch_id" style="shape=partialRectangle;connectable=0;fillColor=none;top=0;left=0;bottom=0;right=0;align=left;spacingLeft=6;overflow=hidden;" parent="CUYrlprS8ljqRvmOuSEW-51" vertex="1">
          <mxGeometry x="30" width="146" height="30" as="geometry">
            <mxRectangle width="146" height="30" as="alternateBounds" />
          </mxGeometry>
        </mxCell>
        <mxCell id="CUYrlprS8ljqRvmOuSEW-54" value="" style="shape=tableRow;horizontal=0;startSize=0;swimlaneHead=0;swimlaneBody=0;fillColor=none;collapsible=0;dropTarget=0;points=[[0,0.5],[1,0.5]];portConstraint=eastwest;top=0;left=0;right=0;bottom=0;" parent="CUYrlprS8ljqRvmOuSEW-47" vertex="1">
          <mxGeometry y="90" width="176" height="30" as="geometry" />
        </mxCell>
        <mxCell id="CUYrlprS8ljqRvmOuSEW-55" value="" style="shape=partialRectangle;connectable=0;fillColor=none;top=0;left=0;bottom=0;right=0;editable=1;overflow=hidden;" parent="CUYrlprS8ljqRvmOuSEW-54" vertex="1">
          <mxGeometry width="30" height="30" as="geometry">
            <mxRectangle width="30" height="30" as="alternateBounds" />
          </mxGeometry>
        </mxCell>
        <mxCell id="CUYrlprS8ljqRvmOuSEW-56" value="position" style="shape=partialRectangle;connectable=0;fillColor=none;top=0;left=0;bottom=0;right=0;align=left;spacingLeft=6;overflow=hidden;" parent="CUYrlprS8ljqRvmOuSEW-54" vertex="1">
          <mxGeometry x="30" width="146" height="30" as="geometry">
            <mxRectangle width="146" height="30" as="alternateBounds" />
          </mxGeometry>
        </mxCell>
        <mxCell id="CUYrlprS8ljqRvmOuSEW-57" value="" style="shape=tableRow;horizontal=0;startSize=0;swimlaneHead=0;swimlaneBody=0;fillColor=none;collapsible=0;dropTarget=0;points=[[0,0.5],[1,0.5]];portConstraint=eastwest;top=0;left=0;right=0;bottom=0;" parent="CUYrlprS8ljqRvmOuSEW-47" vertex="1">
          <mxGeometry y="120" width="176" height="30" as="geometry" />
        </mxCell>
        <mxCell id="CUYrlprS8ljqRvmOuSEW-58" value="" style="shape=partialRectangle;connectable=0;fillColor=none;top=0;left=0;bottom=0;right=0;editable=1;overflow=hidden;" parent="CUYrlprS8ljqRvmOuSEW-57" vertex="1">
          <mxGeometry width="30" height="30" as="geometry">
            <mxRectangle width="30" height="30" as="alternateBounds" />
          </mxGeometry>
        </mxCell>
        <mxCell id="CUYrlprS8ljqRvmOuSEW-59" value="salary" style="shape=partialRectangle;connectable=0;fillColor=none;top=0;left=0;bottom=0;right=0;align=left;spacingLeft=6;overflow=hidden;" parent="CUYrlprS8ljqRvmOuSEW-57" vertex="1">
          <mxGeometry x="30" width="146" height="30" as="geometry">
            <mxRectangle width="146" height="30" as="alternateBounds" />
          </mxGeometry>
        </mxCell>
        <mxCell id="CUYrlprS8ljqRvmOuSEW-60" value="" style="shape=tableRow;horizontal=0;startSize=0;swimlaneHead=0;swimlaneBody=0;fillColor=none;collapsible=0;dropTarget=0;points=[[0,0.5],[1,0.5]];portConstraint=eastwest;top=0;left=0;right=0;bottom=0;" parent="CUYrlprS8ljqRvmOuSEW-47" vertex="1">
          <mxGeometry y="150" width="176" height="30" as="geometry" />
        </mxCell>
        <mxCell id="CUYrlprS8ljqRvmOuSEW-61" value="" style="shape=partialRectangle;connectable=0;fillColor=none;top=0;left=0;bottom=0;right=0;editable=1;overflow=hidden;" parent="CUYrlprS8ljqRvmOuSEW-60" vertex="1">
          <mxGeometry width="30" height="30" as="geometry">
            <mxRectangle width="30" height="30" as="alternateBounds" />
          </mxGeometry>
        </mxCell>
        <mxCell id="CUYrlprS8ljqRvmOuSEW-62" value="description" style="shape=partialRectangle;connectable=0;fillColor=none;top=0;left=0;bottom=0;right=0;align=left;spacingLeft=6;overflow=hidden;" parent="CUYrlprS8ljqRvmOuSEW-60" vertex="1">
          <mxGeometry x="30" width="146" height="30" as="geometry">
            <mxRectangle width="146" height="30" as="alternateBounds" />
          </mxGeometry>
        </mxCell>
        <mxCell id="CUYrlprS8ljqRvmOuSEW-63" value="" style="edgeStyle=entityRelationEdgeStyle;fontSize=12;html=1;endArrow=ERoneToMany;rounded=0;entryX=1;entryY=0.5;entryDx=0;entryDy=0;exitX=0;exitY=0.5;exitDx=0;exitDy=0;" parent="1" source="fwAwZjWYAgxhqmzoozVU-5" target="CUYrlprS8ljqRvmOuSEW-51" edge="1">
          <mxGeometry width="100" height="100" relative="1" as="geometry">
            <mxPoint x="390" y="1290" as="sourcePoint" />
            <mxPoint x="490" y="1190" as="targetPoint" />
          </mxGeometry>
        </mxCell>
        <mxCell id="CUYrlprS8ljqRvmOuSEW-70" value="Employees" style="shape=table;startSize=30;container=1;collapsible=1;childLayout=tableLayout;fixedRows=1;rowLines=0;fontStyle=1;align=center;resizeLast=1;" parent="1" vertex="1">
          <mxGeometry x="674" y="1210" width="176" height="210" as="geometry" />
        </mxCell>
        <mxCell id="CUYrlprS8ljqRvmOuSEW-71" value="" style="shape=tableRow;horizontal=0;startSize=0;swimlaneHead=0;swimlaneBody=0;fillColor=none;collapsible=0;dropTarget=0;points=[[0,0.5],[1,0.5]];portConstraint=eastwest;top=0;left=0;right=0;bottom=1;" parent="CUYrlprS8ljqRvmOuSEW-70" vertex="1">
          <mxGeometry y="30" width="176" height="30" as="geometry" />
        </mxCell>
        <mxCell id="CUYrlprS8ljqRvmOuSEW-72" value="PK" style="shape=partialRectangle;connectable=0;fillColor=none;top=0;left=0;bottom=0;right=0;fontStyle=1;overflow=hidden;" parent="CUYrlprS8ljqRvmOuSEW-71" vertex="1">
          <mxGeometry width="30" height="30" as="geometry">
            <mxRectangle width="30" height="30" as="alternateBounds" />
          </mxGeometry>
        </mxCell>
        <mxCell id="CUYrlprS8ljqRvmOuSEW-73" value="id" style="shape=partialRectangle;connectable=0;fillColor=none;top=0;left=0;bottom=0;right=0;align=left;spacingLeft=6;fontStyle=5;overflow=hidden;" parent="CUYrlprS8ljqRvmOuSEW-71" vertex="1">
          <mxGeometry x="30" width="146" height="30" as="geometry">
            <mxRectangle width="146" height="30" as="alternateBounds" />
          </mxGeometry>
        </mxCell>
        <mxCell id="CUYrlprS8ljqRvmOuSEW-74" value="" style="shape=tableRow;horizontal=0;startSize=0;swimlaneHead=0;swimlaneBody=0;fillColor=none;collapsible=0;dropTarget=0;points=[[0,0.5],[1,0.5]];portConstraint=eastwest;top=0;left=0;right=0;bottom=0;" parent="CUYrlprS8ljqRvmOuSEW-70" vertex="1">
          <mxGeometry y="60" width="176" height="30" as="geometry" />
        </mxCell>
        <mxCell id="CUYrlprS8ljqRvmOuSEW-75" value="" style="shape=partialRectangle;connectable=0;fillColor=none;top=0;left=0;bottom=0;right=0;editable=1;overflow=hidden;" parent="CUYrlprS8ljqRvmOuSEW-74" vertex="1">
          <mxGeometry width="30" height="30" as="geometry">
            <mxRectangle width="30" height="30" as="alternateBounds" />
          </mxGeometry>
        </mxCell>
        <mxCell id="CUYrlprS8ljqRvmOuSEW-76" value="full_name" style="shape=partialRectangle;connectable=0;fillColor=none;top=0;left=0;bottom=0;right=0;align=left;spacingLeft=6;overflow=hidden;" parent="CUYrlprS8ljqRvmOuSEW-74" vertex="1">
          <mxGeometry x="30" width="146" height="30" as="geometry">
            <mxRectangle width="146" height="30" as="alternateBounds" />
          </mxGeometry>
        </mxCell>
        <mxCell id="CUYrlprS8ljqRvmOuSEW-77" value="" style="shape=tableRow;horizontal=0;startSize=0;swimlaneHead=0;swimlaneBody=0;fillColor=none;collapsible=0;dropTarget=0;points=[[0,0.5],[1,0.5]];portConstraint=eastwest;top=0;left=0;right=0;bottom=0;" parent="CUYrlprS8ljqRvmOuSEW-70" vertex="1">
          <mxGeometry y="90" width="176" height="30" as="geometry" />
        </mxCell>
        <mxCell id="CUYrlprS8ljqRvmOuSEW-78" value="" style="shape=partialRectangle;connectable=0;fillColor=none;top=0;left=0;bottom=0;right=0;editable=1;overflow=hidden;" parent="CUYrlprS8ljqRvmOuSEW-77" vertex="1">
          <mxGeometry width="30" height="30" as="geometry">
            <mxRectangle width="30" height="30" as="alternateBounds" />
          </mxGeometry>
        </mxCell>
        <mxCell id="CUYrlprS8ljqRvmOuSEW-79" value="photo_url" style="shape=partialRectangle;connectable=0;fillColor=none;top=0;left=0;bottom=0;right=0;align=left;spacingLeft=6;overflow=hidden;" parent="CUYrlprS8ljqRvmOuSEW-77" vertex="1">
          <mxGeometry x="30" width="146" height="30" as="geometry">
            <mxRectangle width="146" height="30" as="alternateBounds" />
          </mxGeometry>
        </mxCell>
        <mxCell id="CUYrlprS8ljqRvmOuSEW-80" value="" style="shape=tableRow;horizontal=0;startSize=0;swimlaneHead=0;swimlaneBody=0;fillColor=none;collapsible=0;dropTarget=0;points=[[0,0.5],[1,0.5]];portConstraint=eastwest;top=0;left=0;right=0;bottom=0;" parent="CUYrlprS8ljqRvmOuSEW-70" vertex="1">
          <mxGeometry y="120" width="176" height="30" as="geometry" />
        </mxCell>
        <mxCell id="CUYrlprS8ljqRvmOuSEW-81" value="" style="shape=partialRectangle;connectable=0;fillColor=none;top=0;left=0;bottom=0;right=0;editable=1;overflow=hidden;" parent="CUYrlprS8ljqRvmOuSEW-80" vertex="1">
          <mxGeometry width="30" height="30" as="geometry">
            <mxRectangle width="30" height="30" as="alternateBounds" />
          </mxGeometry>
        </mxCell>
        <mxCell id="CUYrlprS8ljqRvmOuSEW-82" value="description" style="shape=partialRectangle;connectable=0;fillColor=none;top=0;left=0;bottom=0;right=0;align=left;spacingLeft=6;overflow=hidden;" parent="CUYrlprS8ljqRvmOuSEW-80" vertex="1">
          <mxGeometry x="30" width="146" height="30" as="geometry">
            <mxRectangle width="146" height="30" as="alternateBounds" />
          </mxGeometry>
        </mxCell>
        <mxCell id="CUYrlprS8ljqRvmOuSEW-83" value="" style="shape=tableRow;horizontal=0;startSize=0;swimlaneHead=0;swimlaneBody=0;fillColor=none;collapsible=0;dropTarget=0;points=[[0,0.5],[1,0.5]];portConstraint=eastwest;top=0;left=0;right=0;bottom=0;" parent="CUYrlprS8ljqRvmOuSEW-70" vertex="1">
          <mxGeometry y="150" width="176" height="30" as="geometry" />
        </mxCell>
        <mxCell id="CUYrlprS8ljqRvmOuSEW-84" value="" style="shape=partialRectangle;connectable=0;fillColor=none;top=0;left=0;bottom=0;right=0;editable=1;overflow=hidden;" parent="CUYrlprS8ljqRvmOuSEW-83" vertex="1">
          <mxGeometry width="30" height="30" as="geometry">
            <mxRectangle width="30" height="30" as="alternateBounds" />
          </mxGeometry>
        </mxCell>
        <mxCell id="CUYrlprS8ljqRvmOuSEW-85" value="phone_number" style="shape=partialRectangle;connectable=0;fillColor=none;top=0;left=0;bottom=0;right=0;align=left;spacingLeft=6;overflow=hidden;" parent="CUYrlprS8ljqRvmOuSEW-83" vertex="1">
          <mxGeometry x="30" width="146" height="30" as="geometry">
            <mxRectangle width="146" height="30" as="alternateBounds" />
          </mxGeometry>
        </mxCell>
        <mxCell id="CUYrlprS8ljqRvmOuSEW-86" value="" style="shape=tableRow;horizontal=0;startSize=0;swimlaneHead=0;swimlaneBody=0;fillColor=none;collapsible=0;dropTarget=0;points=[[0,0.5],[1,0.5]];portConstraint=eastwest;top=0;left=0;right=0;bottom=0;" parent="CUYrlprS8ljqRvmOuSEW-70" vertex="1">
          <mxGeometry y="180" width="176" height="30" as="geometry" />
        </mxCell>
        <mxCell id="CUYrlprS8ljqRvmOuSEW-87" value="" style="shape=partialRectangle;connectable=0;fillColor=none;top=0;left=0;bottom=0;right=0;editable=1;overflow=hidden;" parent="CUYrlprS8ljqRvmOuSEW-86" vertex="1">
          <mxGeometry width="30" height="30" as="geometry">
            <mxRectangle width="30" height="30" as="alternateBounds" />
          </mxGeometry>
        </mxCell>
        <mxCell id="CUYrlprS8ljqRvmOuSEW-88" value="email" style="shape=partialRectangle;connectable=0;fillColor=none;top=0;left=0;bottom=0;right=0;align=left;spacingLeft=6;overflow=hidden;" parent="CUYrlprS8ljqRvmOuSEW-86" vertex="1">
          <mxGeometry x="30" width="146" height="30" as="geometry">
            <mxRectangle width="146" height="30" as="alternateBounds" />
          </mxGeometry>
        </mxCell>
        <mxCell id="CUYrlprS8ljqRvmOuSEW-89" value="Article" style="shape=table;startSize=30;container=1;collapsible=1;childLayout=tableLayout;fixedRows=1;rowLines=0;fontStyle=1;align=center;resizeLast=1;" parent="1" vertex="1">
          <mxGeometry x="1050" y="1210" width="176" height="180" as="geometry" />
        </mxCell>
        <mxCell id="CUYrlprS8ljqRvmOuSEW-90" value="" style="shape=tableRow;horizontal=0;startSize=0;swimlaneHead=0;swimlaneBody=0;fillColor=none;collapsible=0;dropTarget=0;points=[[0,0.5],[1,0.5]];portConstraint=eastwest;top=0;left=0;right=0;bottom=1;" parent="CUYrlprS8ljqRvmOuSEW-89" vertex="1">
          <mxGeometry y="30" width="176" height="30" as="geometry" />
        </mxCell>
        <mxCell id="CUYrlprS8ljqRvmOuSEW-91" value="PK" style="shape=partialRectangle;connectable=0;fillColor=none;top=0;left=0;bottom=0;right=0;fontStyle=1;overflow=hidden;" parent="CUYrlprS8ljqRvmOuSEW-90" vertex="1">
          <mxGeometry width="30" height="30" as="geometry">
            <mxRectangle width="30" height="30" as="alternateBounds" />
          </mxGeometry>
        </mxCell>
        <mxCell id="CUYrlprS8ljqRvmOuSEW-92" value="id" style="shape=partialRectangle;connectable=0;fillColor=none;top=0;left=0;bottom=0;right=0;align=left;spacingLeft=6;fontStyle=5;overflow=hidden;" parent="CUYrlprS8ljqRvmOuSEW-90" vertex="1">
          <mxGeometry x="30" width="146" height="30" as="geometry">
            <mxRectangle width="146" height="30" as="alternateBounds" />
          </mxGeometry>
        </mxCell>
        <mxCell id="CUYrlprS8ljqRvmOuSEW-93" value="" style="shape=tableRow;horizontal=0;startSize=0;swimlaneHead=0;swimlaneBody=0;fillColor=none;collapsible=0;dropTarget=0;points=[[0,0.5],[1,0.5]];portConstraint=eastwest;top=0;left=0;right=0;bottom=0;" parent="CUYrlprS8ljqRvmOuSEW-89" vertex="1">
          <mxGeometry y="60" width="176" height="30" as="geometry" />
        </mxCell>
        <mxCell id="CUYrlprS8ljqRvmOuSEW-94" value="" style="shape=partialRectangle;connectable=0;fillColor=none;top=0;left=0;bottom=0;right=0;editable=1;overflow=hidden;" parent="CUYrlprS8ljqRvmOuSEW-93" vertex="1">
          <mxGeometry width="30" height="30" as="geometry">
            <mxRectangle width="30" height="30" as="alternateBounds" />
          </mxGeometry>
        </mxCell>
        <mxCell id="CUYrlprS8ljqRvmOuSEW-95" value="title" style="shape=partialRectangle;connectable=0;fillColor=none;top=0;left=0;bottom=0;right=0;align=left;spacingLeft=6;overflow=hidden;" parent="CUYrlprS8ljqRvmOuSEW-93" vertex="1">
          <mxGeometry x="30" width="146" height="30" as="geometry">
            <mxRectangle width="146" height="30" as="alternateBounds" />
          </mxGeometry>
        </mxCell>
        <mxCell id="CUYrlprS8ljqRvmOuSEW-96" value="" style="shape=tableRow;horizontal=0;startSize=0;swimlaneHead=0;swimlaneBody=0;fillColor=none;collapsible=0;dropTarget=0;points=[[0,0.5],[1,0.5]];portConstraint=eastwest;top=0;left=0;right=0;bottom=0;" parent="CUYrlprS8ljqRvmOuSEW-89" vertex="1">
          <mxGeometry y="90" width="176" height="30" as="geometry" />
        </mxCell>
        <mxCell id="CUYrlprS8ljqRvmOuSEW-97" value="" style="shape=partialRectangle;connectable=0;fillColor=none;top=0;left=0;bottom=0;right=0;editable=1;overflow=hidden;" parent="CUYrlprS8ljqRvmOuSEW-96" vertex="1">
          <mxGeometry width="30" height="30" as="geometry">
            <mxRectangle width="30" height="30" as="alternateBounds" />
          </mxGeometry>
        </mxCell>
        <mxCell id="CUYrlprS8ljqRvmOuSEW-98" value="short_description" style="shape=partialRectangle;connectable=0;fillColor=none;top=0;left=0;bottom=0;right=0;align=left;spacingLeft=6;overflow=hidden;" parent="CUYrlprS8ljqRvmOuSEW-96" vertex="1">
          <mxGeometry x="30" width="146" height="30" as="geometry">
            <mxRectangle width="146" height="30" as="alternateBounds" />
          </mxGeometry>
        </mxCell>
        <mxCell id="CUYrlprS8ljqRvmOuSEW-99" value="" style="shape=tableRow;horizontal=0;startSize=0;swimlaneHead=0;swimlaneBody=0;fillColor=none;collapsible=0;dropTarget=0;points=[[0,0.5],[1,0.5]];portConstraint=eastwest;top=0;left=0;right=0;bottom=0;" parent="CUYrlprS8ljqRvmOuSEW-89" vertex="1">
          <mxGeometry y="120" width="176" height="30" as="geometry" />
        </mxCell>
        <mxCell id="CUYrlprS8ljqRvmOuSEW-100" value="" style="shape=partialRectangle;connectable=0;fillColor=none;top=0;left=0;bottom=0;right=0;editable=1;overflow=hidden;" parent="CUYrlprS8ljqRvmOuSEW-99" vertex="1">
          <mxGeometry width="30" height="30" as="geometry">
            <mxRectangle width="30" height="30" as="alternateBounds" />
          </mxGeometry>
        </mxCell>
        <mxCell id="CUYrlprS8ljqRvmOuSEW-101" value="body" style="shape=partialRectangle;connectable=0;fillColor=none;top=0;left=0;bottom=0;right=0;align=left;spacingLeft=6;overflow=hidden;" parent="CUYrlprS8ljqRvmOuSEW-99" vertex="1">
          <mxGeometry x="30" width="146" height="30" as="geometry">
            <mxRectangle width="146" height="30" as="alternateBounds" />
          </mxGeometry>
        </mxCell>
        <mxCell id="CUYrlprS8ljqRvmOuSEW-102" value="" style="shape=tableRow;horizontal=0;startSize=0;swimlaneHead=0;swimlaneBody=0;fillColor=none;collapsible=0;dropTarget=0;points=[[0,0.5],[1,0.5]];portConstraint=eastwest;top=0;left=0;right=0;bottom=0;" parent="CUYrlprS8ljqRvmOuSEW-89" vertex="1">
          <mxGeometry y="150" width="176" height="30" as="geometry" />
        </mxCell>
        <mxCell id="CUYrlprS8ljqRvmOuSEW-103" value="" style="shape=partialRectangle;connectable=0;fillColor=none;top=0;left=0;bottom=0;right=0;editable=1;overflow=hidden;" parent="CUYrlprS8ljqRvmOuSEW-102" vertex="1">
          <mxGeometry width="30" height="30" as="geometry">
            <mxRectangle width="30" height="30" as="alternateBounds" />
          </mxGeometry>
        </mxCell>
        <mxCell id="CUYrlprS8ljqRvmOuSEW-104" value="image_url" style="shape=partialRectangle;connectable=0;fillColor=none;top=0;left=0;bottom=0;right=0;align=left;spacingLeft=6;overflow=hidden;" parent="CUYrlprS8ljqRvmOuSEW-102" vertex="1">
          <mxGeometry x="30" width="146" height="30" as="geometry">
            <mxRectangle width="146" height="30" as="alternateBounds" />
          </mxGeometry>
        </mxCell>
        <mxCell id="CUYrlprS8ljqRvmOuSEW-108" value="About" style="shape=table;startSize=30;container=1;collapsible=1;childLayout=tableLayout;fixedRows=1;rowLines=0;fontStyle=1;align=center;resizeLast=1;" parent="1" vertex="1">
          <mxGeometry x="860" y="1210" width="176" height="180" as="geometry" />
        </mxCell>
        <mxCell id="CUYrlprS8ljqRvmOuSEW-109" value="" style="shape=tableRow;horizontal=0;startSize=0;swimlaneHead=0;swimlaneBody=0;fillColor=none;collapsible=0;dropTarget=0;points=[[0,0.5],[1,0.5]];portConstraint=eastwest;top=0;left=0;right=0;bottom=1;" parent="CUYrlprS8ljqRvmOuSEW-108" vertex="1">
          <mxGeometry y="30" width="176" height="30" as="geometry" />
        </mxCell>
        <mxCell id="CUYrlprS8ljqRvmOuSEW-110" value="PK" style="shape=partialRectangle;connectable=0;fillColor=none;top=0;left=0;bottom=0;right=0;fontStyle=1;overflow=hidden;" parent="CUYrlprS8ljqRvmOuSEW-109" vertex="1">
          <mxGeometry width="30" height="30" as="geometry">
            <mxRectangle width="30" height="30" as="alternateBounds" />
          </mxGeometry>
        </mxCell>
        <mxCell id="CUYrlprS8ljqRvmOuSEW-111" value="id" style="shape=partialRectangle;connectable=0;fillColor=none;top=0;left=0;bottom=0;right=0;align=left;spacingLeft=6;fontStyle=5;overflow=hidden;" parent="CUYrlprS8ljqRvmOuSEW-109" vertex="1">
          <mxGeometry x="30" width="146" height="30" as="geometry">
            <mxRectangle width="146" height="30" as="alternateBounds" />
          </mxGeometry>
        </mxCell>
        <mxCell id="CUYrlprS8ljqRvmOuSEW-112" value="" style="shape=tableRow;horizontal=0;startSize=0;swimlaneHead=0;swimlaneBody=0;fillColor=none;collapsible=0;dropTarget=0;points=[[0,0.5],[1,0.5]];portConstraint=eastwest;top=0;left=0;right=0;bottom=0;" parent="CUYrlprS8ljqRvmOuSEW-108" vertex="1">
          <mxGeometry y="60" width="176" height="30" as="geometry" />
        </mxCell>
        <mxCell id="CUYrlprS8ljqRvmOuSEW-113" value="" style="shape=partialRectangle;connectable=0;fillColor=none;top=0;left=0;bottom=0;right=0;editable=1;overflow=hidden;" parent="CUYrlprS8ljqRvmOuSEW-112" vertex="1">
          <mxGeometry width="30" height="30" as="geometry">
            <mxRectangle width="30" height="30" as="alternateBounds" />
          </mxGeometry>
        </mxCell>
        <mxCell id="CUYrlprS8ljqRvmOuSEW-114" value="video_url" style="shape=partialRectangle;connectable=0;fillColor=none;top=0;left=0;bottom=0;right=0;align=left;spacingLeft=6;overflow=hidden;" parent="CUYrlprS8ljqRvmOuSEW-112" vertex="1">
          <mxGeometry x="30" width="146" height="30" as="geometry">
            <mxRectangle width="146" height="30" as="alternateBounds" />
          </mxGeometry>
        </mxCell>
        <mxCell id="CUYrlprS8ljqRvmOuSEW-115" value="" style="shape=tableRow;horizontal=0;startSize=0;swimlaneHead=0;swimlaneBody=0;fillColor=none;collapsible=0;dropTarget=0;points=[[0,0.5],[1,0.5]];portConstraint=eastwest;top=0;left=0;right=0;bottom=0;" parent="CUYrlprS8ljqRvmOuSEW-108" vertex="1">
          <mxGeometry y="90" width="176" height="30" as="geometry" />
        </mxCell>
        <mxCell id="CUYrlprS8ljqRvmOuSEW-116" value="" style="shape=partialRectangle;connectable=0;fillColor=none;top=0;left=0;bottom=0;right=0;editable=1;overflow=hidden;" parent="CUYrlprS8ljqRvmOuSEW-115" vertex="1">
          <mxGeometry width="30" height="30" as="geometry">
            <mxRectangle width="30" height="30" as="alternateBounds" />
          </mxGeometry>
        </mxCell>
        <mxCell id="CUYrlprS8ljqRvmOuSEW-117" value="image_url" style="shape=partialRectangle;connectable=0;fillColor=none;top=0;left=0;bottom=0;right=0;align=left;spacingLeft=6;overflow=hidden;" parent="CUYrlprS8ljqRvmOuSEW-115" vertex="1">
          <mxGeometry x="30" width="146" height="30" as="geometry">
            <mxRectangle width="146" height="30" as="alternateBounds" />
          </mxGeometry>
        </mxCell>
        <mxCell id="CUYrlprS8ljqRvmOuSEW-118" value="" style="shape=tableRow;horizontal=0;startSize=0;swimlaneHead=0;swimlaneBody=0;fillColor=none;collapsible=0;dropTarget=0;points=[[0,0.5],[1,0.5]];portConstraint=eastwest;top=0;left=0;right=0;bottom=0;" parent="CUYrlprS8ljqRvmOuSEW-108" vertex="1">
          <mxGeometry y="120" width="176" height="30" as="geometry" />
        </mxCell>
        <mxCell id="CUYrlprS8ljqRvmOuSEW-119" value="" style="shape=partialRectangle;connectable=0;fillColor=none;top=0;left=0;bottom=0;right=0;editable=1;overflow=hidden;" parent="CUYrlprS8ljqRvmOuSEW-118" vertex="1">
          <mxGeometry width="30" height="30" as="geometry">
            <mxRectangle width="30" height="30" as="alternateBounds" />
          </mxGeometry>
        </mxCell>
        <mxCell id="CUYrlprS8ljqRvmOuSEW-120" value="body" style="shape=partialRectangle;connectable=0;fillColor=none;top=0;left=0;bottom=0;right=0;align=left;spacingLeft=6;overflow=hidden;" parent="CUYrlprS8ljqRvmOuSEW-118" vertex="1">
          <mxGeometry x="30" width="146" height="30" as="geometry">
            <mxRectangle width="146" height="30" as="alternateBounds" />
          </mxGeometry>
        </mxCell>
        <mxCell id="CUYrlprS8ljqRvmOuSEW-121" value="" style="shape=tableRow;horizontal=0;startSize=0;swimlaneHead=0;swimlaneBody=0;fillColor=none;collapsible=0;dropTarget=0;points=[[0,0.5],[1,0.5]];portConstraint=eastwest;top=0;left=0;right=0;bottom=0;" parent="CUYrlprS8ljqRvmOuSEW-108" vertex="1">
          <mxGeometry y="150" width="176" height="30" as="geometry" />
        </mxCell>
        <mxCell id="CUYrlprS8ljqRvmOuSEW-122" value="" style="shape=partialRectangle;connectable=0;fillColor=none;top=0;left=0;bottom=0;right=0;editable=1;overflow=hidden;" parent="CUYrlprS8ljqRvmOuSEW-121" vertex="1">
          <mxGeometry width="30" height="30" as="geometry">
            <mxRectangle width="30" height="30" as="alternateBounds" />
          </mxGeometry>
        </mxCell>
        <mxCell id="CUYrlprS8ljqRvmOuSEW-123" value="contacts" style="shape=partialRectangle;connectable=0;fillColor=none;top=0;left=0;bottom=0;right=0;align=left;spacingLeft=6;overflow=hidden;" parent="CUYrlprS8ljqRvmOuSEW-121" vertex="1">
          <mxGeometry x="30" width="146" height="30" as="geometry">
            <mxRectangle width="146" height="30" as="alternateBounds" />
          </mxGeometry>
        </mxCell>
      </root>
    </mxGraphModel>
  </diagram>
</mxfile>
